<svg xmlns="http://www.w3.org/2000/svg" width="684.58" height="272.151" viewBox="0 0 684.58 272.151">
    <defs>
        <style>
            .cls-1{fill:#efc20e}.cls-2{fill:#ede1c5}
        </style>
    </defs>
    <g id="do_something_super" transform="translate(-1403.682 -878.304)">
        <g id="Group_734" transform="translate(1403.682 1075.284)">
            <path id="Path_2141" d="M1408.207 961.7v-8.689h12.942l3.075-14.119h9.506l-3.079 14.119h11.856l3.079-14.119H1455l-3.076 14.119h11.5v8.689h-13.306l-2.714 12.672h11.5v8.6h-13.4l-3.075 14.571h-9.415l3.075-14.571h-11.856l-3.075 14.571h-9.506l3.079-14.571h-11.041v-8.6h12.942l2.715-12.672zm20.634 0l-2.714 12.672h11.856l2.717-12.672z" class="cls-1" transform="translate(-1403.682 -938.896)"/>
        </g>
        <g id="Group_737" transform="translate(1478.629 878.304)">
            <g id="Group_735" transform="translate(288.65 .738)">
                <path id="Path_2142" d="M1575.5 899.249l-13.959 4.278a14.665 14.665 0 0 0-4.278-7.77q-3.491-3.487-10.247-3.492a13.381 13.381 0 0 0-9 2.985 9.115 9.115 0 0 0-3.492 7.152q0 7.319 8.67 9.005l11.147 2.139q10.582 2.028 16.437 8.443a21.676 21.676 0 0 1 5.855 15.091q0 9.9-7.825 17.279t-21 7.376a39 39 0 0 1-13.625-2.253 26.324 26.324 0 0 1-9.795-6.021 30.875 30.875 0 0 1-5.8-7.994 25.2 25.2 0 0 1-2.536-8.725l14.411-3.83a16.32 16.32 0 0 0 5.01 10.7q4.447 4.281 12.445 4.278 6.075 0 9.512-2.7a8.6 8.6 0 0 0 3.433-7.094 8.241 8.241 0 0 0-2.532-6.024 13.477 13.477 0 0 0-7.149-3.433l-11.147-2.253q-9.684-2.028-15.312-7.994a20.8 20.8 0 0 1-5.631-14.86 22.8 22.8 0 0 1 8.163-17.789 28.685 28.685 0 0 1 19.648-7.207 36.674 36.674 0 0 1 12.272 1.915 23.214 23.214 0 0 1 8.667 5.124 27.443 27.443 0 0 1 5.069 6.586 26.834 26.834 0 0 1 2.589 7.088z" class="cls-2" transform="translate(-1514.346 -878.531)"/>
                <path id="Path_2143" d="M1536.518 920.188q0-18.686 12.048-30.175a42.341 42.341 0 0 1 57.983 0q12.045 11.489 12.045 30.175 0 18.579-12.045 30.062a42.333 42.333 0 0 1-57.983 0q-12.055-11.484-12.048-30.062zm23.53-19.759q-7.431 6.924-7.432 19.648t7.432 19.646a25.6 25.6 0 0 0 35.016 0q7.432-6.925 7.432-19.646t-7.432-19.648a25.6 25.6 0 0 0-35.016 0z" class="cls-2" transform="translate(-1468.275 -878.531)"/>
                <path id="Path_2144" d="M1654.288 958.874h-15.315v-55.955l-22.968 55.955h-12.948l-22.968-55.506v55.506h-14.86v-79.823h20.491l23.98 57.649 23.417-57.645h21.17z" class="cls-2" transform="translate(-1403.648 -877.36)"/>
                <path id="Path_2145" d="M1647.531 958.874h-49.99v-79.823h49.99v14.635h-34.454v18.241h31.189v13.846h-31.189v18.465h34.454z" class="cls-2" transform="translate(-1330.916 -877.36)"/>
                <path id="Path_2146" d="M1576.981 921.589h-23.453V982.1h-14.551v-60.511h-23.452v-13.712h61.456z" class="cls-2" transform="translate(-1515.526 -812.475)"/>
                <path id="Path_2147" d="M1598.257 982.1h-14.551v-30.78h-32.347v30.78h-14.45v-74.223h14.45v29.837h32.347v-29.837h14.551z" class="cls-2" transform="translate(-1467.394 -812.475)"/>
                <path id="Path_2148" d="M1575.011 982.1h-14.658v-74.223h14.658z" class="cls-2" transform="translate(-1414.624 -812.475)"/>
                <path id="Path_2149" d="M1632.772 982.1h-15.179l-33.712-52.658V982.1h-14.447v-74.223h18.007l30.884 49.1v-49.1h14.447z" class="cls-2" transform="translate(-1394.183 -812.475)"/>
                <path id="Path_2150" d="M1663.746 983.189h-11.726l-.939-8.478a21.676 21.676 0 0 1-8.43 7.172 29.174 29.174 0 0 1-13.453 2.877 36.111 36.111 0 0 1-26.277-10.575q-10.786-10.572-10.784-28.055 0-17.375 11.148-28.059a37.444 37.444 0 0 1 26.855-10.676q13.605 0 22.247 6.593a32.418 32.418 0 0 1 11.674 16.229l-13.82 4.922a20.306 20.306 0 0 0-6.752-10q-5.082-4.242-13.349-4.239a23.239 23.239 0 0 0-16.385 6.489q-6.963 6.5-6.963 18.742 0 12.04 6.752 18.738a22.764 22.764 0 0 0 16.7 6.7q9.212 0 14.135-4.658t5.757-9.789h-23.452v-12.563h37.061z" class="cls-2" transform="translate(-1343.078 -813.563)"/>
            </g>
            <path id="Path_2151" d="M1547.179 878.3c43.855 0 82.938 32.041 82.938 84.075 0 51.81-39.083 83.848-82.937 83.848-43.627 0-82.71-32.038-82.71-83.848-.001-52.03 39.082-84.075 82.709-84.075z" class="cls-1" transform="translate(-1341.802 -878.304)"/>
            <g id="Group_736" transform="translate(0 3.41)">
                <path id="Path_2152" d="M1426.736 1040.459V879.353h57.714c45.9 0 79.531 29.765 79.531 80.665s-33.855 80.441-79.755 80.441z" class="cls-2" transform="translate(-1426.736 -879.353)"/>
            </g>
        </g>
        <g id="Group_738" transform="translate(1479.65 1071.035)">
            <path id="Path_2153" d="M1461.09 986.808c-.354 6.6-3.345 9.938-5.806 11.346-3.167 1.846-6.42 1.934-9.851 1.934h-18.383v-62.093h21.021a13.047 13.047 0 0 1 8.534 3.075c4.22 3.609 4.571 8.183 4.571 13.283v29.024c-.001 1.142-.001 2.286-.086 3.431zm-11.349-33.423c0-1.934.091-3.868-1.583-5.276-1.5-1.232-3.43-1.057-5.188-1.057h-4.486v43.975h4.047a20.223 20.223 0 0 0 3.254-.176c3.693-.7 3.957-3.43 3.957-6.508z" class="cls-1" transform="translate(-1427.05 -936.675)"/>
            <path id="Path_2154" d="M1465.413 985.186c-3.956 4.75-10.2 4.574-11.96 4.574a21.343 21.343 0 0 1-4.486-.439 10.977 10.977 0 0 1-8.355-7.123 16.423 16.423 0 0 1-.793-6.07V955.99a13.955 13.955 0 0 1 .881-5.718c2.11-5.627 8-7.3 13.368-7.3 1.408 0 10.029-.088 12.841 6.593a12.964 12.964 0 0 1 1.057 5.982v21.723c0 3.17-.443 5.455-2.553 7.916zm-7.828-30.253c0-2.815-.264-4.047-1.668-4.925a3.215 3.215 0 0 0-1.937-.527 3.311 3.311 0 0 0-2.11.615c-1.671 1.232-1.583 3.079-1.583 4.925v22.867c0 .793-.088 4.662 3.6 4.662 3.96 0 3.694-4.048 3.694-4.75z" class="cls-1" transform="translate(-1398.308 -925.47)"/>
            <path id="Path_2155" d="M1484 992.822c-1.4 5.013-5.54 9.5-16.092 9.5-4.4 0-9.061-.615-12.753-3.517a10.5 10.5 0 0 1-3.254-4.22 13.69 13.69 0 0 1-1.232-6.42V979.1h11.346v7.214c0 2.285-.175 4.925 2.022 6.329a6.308 6.308 0 0 0 3.518.881 5.575 5.575 0 0 0 3.959-1.144c1.671-1.317 1.671-4.044 1.671-8.267 0-.79.175-3.605-1.232-5.715a10.336 10.336 0 0 0-2.636-2.464l-10.819-7.3a14.437 14.437 0 0 1-5.189-5.1c-1.32-2.2-2.2-4.574-2.2-9.851 0-.881-.088-5.276 1.5-8.53 3.521-7.565 14.162-7.565 15.394-7.565 1.847 0 11.785 0 15.039 8.179a10.591 10.591 0 0 1 .966 5.188v6.157h-11.43v-6.333c0-1.846-.706-4.486-5.1-4.486-2.636 0-5.1.969-5.1 6.157 0 .263-.175 3.956 1.232 5.979a10.188 10.188 0 0 0 2.373 2.025l11.083 7.653a23.226 23.226 0 0 1 5.1 4.834c2.724 3.609 2.46 6.336 2.46 10.731-.009 4.752-.009 6.774-.626 9.15z" class="cls-1" transform="translate(-1373.888 -937.589)"/>
            <path id="Path_2156" d="M1488.788 985.186c-3.957 4.75-10.2 4.574-11.96 4.574a21.352 21.352 0 0 1-4.486-.439 10.977 10.977 0 0 1-8.354-7.123 16.41 16.41 0 0 1-.793-6.07V955.99a13.954 13.954 0 0 1 .881-5.718c2.11-5.627 8-7.3 13.368-7.3 1.408 0 10.029-.088 12.841 6.593a12.965 12.965 0 0 1 1.056 5.982v21.723c-.002 3.17-.441 5.455-2.553 7.916zm-7.828-30.253c0-2.815-.263-4.047-1.668-4.925a3.214 3.214 0 0 0-1.937-.527 3.313 3.313 0 0 0-2.11.615c-1.671 1.232-1.583 3.079-1.583 4.925v22.867c0 .793-.088 4.662 3.6 4.662 3.96 0 3.693-4.048 3.693-4.75z" class="cls-1" transform="translate(-1345.695 -925.47)"/>
            <path id="Path_2157" d="M1510.908 988.943v-33.335c0-1.759 0-3.43-1.583-4.571a4.1 4.1 0 0 0-2.2-.618c-3.518 0-4.223 2.9-4.223 5.715v32.808h-10.377v-33.07c0-1.846.175-3.517-1.408-4.834a3.466 3.466 0 0 0-2.464-.793c-4.307 0-4.044 4.574-4.044 5.364v33.335h-10.38v-45.033h10.471v2.989a12.834 12.834 0 0 1 8.884-3.957c4.834 0 7.387 3.254 8.443 4.483 3.605-3.079 4.837-3.605 7.386-4.132a14.239 14.239 0 0 1 2.9-.263c4.044 0 7.562 2.2 8.618 6.154a11.831 11.831 0 0 1 .439 4.047v35.708z" class="cls-1" transform="translate(-1320.849 -925.531)"/>
            <path id="Path_2158" d="M1501.554 968.655v7.386a8.771 8.771 0 0 0 .263 2.988 3.566 3.566 0 0 0 3.6 2.552 3.306 3.306 0 0 0 3.342-2.461 21.918 21.918 0 0 0 .351-5.1h10.114v3.609a12.443 12.443 0 0 1-.439 4.044c-1.759 6.333-7.39 8.092-13.368 8.092-9.236 0-12.314-4.574-13.543-8.618a28.938 28.938 0 0 1-.793-5.894v-19a16.722 16.722 0 0 1 1.145-6.069c2.2-5.276 8-7.21 13.28-7.21 7.3 0 11.346 3.693 12.666 6.42.79 1.583 1.229 2.988 1.229 6.417v12.844zm7.474-12.929c0-.969.176-4.486-3.605-4.486s-3.868 3.342-3.868 4.486v5.54h7.474z" class="cls-1" transform="translate(-1282.909 -925.47)"/>
            <path id="Path_2159" d="M1518.245 1000.04c-6.069 0-9.236-1.32-10.553-4.219a11.555 11.555 0 0 1-.881-5.192v-29.112h-5.711v-6.948h5.628v-16.358h10.38v16.358h6.242v6.948h-6.25V987.2a5.906 5.906 0 0 0 .263 2.464c.615 2.11 2.637 2.461 4.483 2.461a11.9 11.9 0 0 0 1.759-.176v7.565a22.208 22.208 0 0 1-5.36.526z" class="cls-1" transform="translate(-1260.378 -936.189)"/>
            <path id="Path_2160" d="M1528.035 1000.088v-32.015a9.086 9.086 0 0 0-.351-3.518 3.77 3.77 0 0 0-3.521-2.022 3.9 3.9 0 0 0-3.956 3.079 6.275 6.275 0 0 0-.176 1.846v32.63h-10.468v-62.093h10.292l.088 20.67a11.949 11.949 0 0 1 9.145-4.486 8.9 8.9 0 0 1 8.8 6.154 12.887 12.887 0 0 1 .614 4.486v35.269z" class="cls-1" transform="translate(-1241.32 -936.675)"/>
            <path id="Path_2161" d="M1520.98 948.548v-10.553h10.556v10.553zm0 51.54v-45.032h10.556v45.032z" class="cls-1" transform="translate(-1215.621 -936.675)"/>
            <path id="Path_2162" d="M1545.3 988.883v-33.157c0-2.815-.179-3.96-1.586-4.841a3.288 3.288 0 0 0-2.022-.527c-4.925 0-4.486 5.188-4.486 6.07v32.454h-10.465v-45.031h10.644l-.088 3.254c2.725-2.636 4.922-4.132 8.97-4.132 4.135 0 8 2.11 9.06 6.329a14.291 14.291 0 0 1 .351 4.4v35.181z" class="cls-1" transform="translate(-1202.651 -925.47)"/>
            <path id="Path_2163" d="M1567.284 993.369c-.088 1.58-.439 6.066-4.571 8.881-1.762 1.229-5.367 2.64-10.644 2.64a27.007 27.007 0 0 1-3.605-.263c-1.5-.266-7.477-1.057-9.5-6.508a16.8 16.8 0 0 1-.7-5.543h10.377a6.755 6.755 0 0 0 .175 2.11 3.685 3.685 0 0 0 3.869 2.64 4.32 4.32 0 0 0 2.376-.618c1.759-.965 1.847-2.988 1.847-4.746v-6.95a11.078 11.078 0 0 1-9.145 4.4 11.638 11.638 0 0 1-5.367-1.32c-4.132-2.2-4.4-5.978-4.4-9.938v-23.839a15.362 15.362 0 0 1 .618-4.922 8.983 8.983 0 0 1 8.969-6.42c4.044 0 6.508 1.846 9.324 4.486v-3.609h10.556v46.615c-.001.966-.091 1.935-.179 2.904zm-10.465-37.028c0-.881.351-5.455-4.223-5.455a4.031 4.031 0 0 0-2.549.793c-1.145.878-1.674 1.934-1.674 4.574V976.3a8.572 8.572 0 0 0 .354 2.64 3.738 3.738 0 0 0 3.78 2.373c4.4 0 4.311-3.869 4.311-5.013z" class="cls-1" transform="translate(-1177.319 -925.47)"/>
            <path id="Path_2164" d="M1570.494 1000.088l-10.994-46.527.969 46.527h-10.731v-62.093h14.688l11.17 45.559-1.144-45.559h10.468v62.093z" class="cls-1" transform="translate(-1150.891 -936.675)"/>
            <path id="Path_2165" d="M1573.54 968.655v7.386a8.771 8.771 0 0 0 .263 2.988 3.57 3.57 0 0 0 3.608 2.552 3.3 3.3 0 0 0 3.342-2.461 21.926 21.926 0 0 0 .352-5.1h10.114v3.609a12.443 12.443 0 0 1-.439 4.044c-1.759 6.333-7.39 8.092-13.368 8.092-9.235 0-12.314-4.574-13.546-8.618a29.088 29.088 0 0 1-.79-5.894v-19a16.722 16.722 0 0 1 1.145-6.069c2.2-5.276 8-7.21 13.28-7.21 7.3 0 11.343 3.693 12.666 6.42.79 1.583 1.229 2.988 1.229 6.417v12.844zm7.477-12.929c0-.969.175-4.486-3.605-4.486s-3.872 3.342-3.872 4.486v5.54h7.477z" class="cls-1" transform="translate(-1120.868 -925.47)"/>
            <path id="Path_2166" d="M1592.938 988.943c-.878-.969-1.057-1.759-1.232-3.959-.527.53-.969 1.144-1.583 1.671a9.9 9.9 0 0 1-7.474 3.254 9.208 9.208 0 0 1-5.455-1.671c-3.693-2.724-3.43-8.092-3.43-12.048 0-3.254-.175-6.6 2.113-9.236a14.121 14.121 0 0 1 4.75-3.342l10.9-5.452v-2.64c0-2.64-.263-3.957-1.408-4.747a4.171 4.171 0 0 0-2.286-.618 3.414 3.414 0 0 0-3.254 1.759 12.908 12.908 0 0 0-.354 4.22v1.674h-9.583v-5.1a9 9 0 0 1 2.549-6.42c1.847-1.85 5.542-3.342 11.346-3.342 1.32 0 9.148-.091 12.314 5.627a8.251 8.251 0 0 1 1.053 4.307v25.068c0 2.464-.263 8 1.32 10.2.091.267.264.439.706.793zm-1.5-22.691l-5.1 3.342c-.354.263-.793.614-.881.7-1.317 1.232-1.5 2.991-1.5 6.508 0 3.342.442 5.276 2.552 5.192a5.645 5.645 0 0 0 3.781-1.583l1.144-.969z" class="cls-1" transform="translate(-1096.817 -925.531)"/>
            <path id="Path_2167" d="M1605.516 953.389a7.454 7.454 0 0 0-3.433-.7 7.072 7.072 0 0 0-3.956 1.053c-2.9 2.022-2.815 5.543-2.815 8.531v26.563h-10.377V943.8h10.465l-.088 5.715a18.656 18.656 0 0 1 1.583-2.636 9.755 9.755 0 0 1 8.709-3.869z" class="cls-1" transform="translate(-1071.665 -925.422)"/>
            <path id="Path_2168" d="M1621.727 994.811a9.411 9.411 0 0 1-9.057 6.242 11.178 11.178 0 0 1-7.565-3.079 9.9 9.9 0 0 1-1.583-2.022l-.088 4.135h-10.465v-62.092h10.465v20.579c.614-.527 1.145-1.057 1.759-1.5.793-.527 4.047-2.9 7.653-2.9a9.451 9.451 0 0 1 8.793 5.981 11.452 11.452 0 0 1 .793 4.483v25.512a12.809 12.809 0 0 1-.705 4.661zm-9.938-27.532c0-1.492-.088-2.988-1.232-4.044a3.575 3.575 0 0 0-2.725-1.053 3.979 3.979 0 0 0-4.135 2.724 8.867 8.867 0 0 0-.352 3.078v18.206a20.235 20.235 0 0 0 .088 2.022c.351 2.64 1.5 3.959 4.311 3.959a3.407 3.407 0 0 0 2.9-1.232c.878-1.145 1.141-2.286 1.141-4.75z" class="cls-1" transform="translate(-1053.579 -936.675)"/>
            <path id="Path_2169" d="M1623.891 991.529c-.969 4.662-2.021 7.211-3.517 9.057-1.674 2.022-3.872 3.254-9.06 3.254a35.6 35.6 0 0 1-6.772-.79l1.583-8.267a14.086 14.086 0 0 0 3.957.615c3.605 0 4.574-3.869 4.75-5.891l.088-1.232-11.7-45.032h10.38l5.806 28.937 4.486-28.937h10.29z" class="cls-1" transform="translate(-1030.5 -924.862)"/>
        </g>
    </g>
</svg>
