<svg xmlns="http://www.w3.org/2000/svg" width="280" height="280" viewBox="0 0 280 280">
    <defs>
        <style>
            .cls-1{fill:#2f5080}.cls-3{fill:#ede1c5}
        </style>
    </defs>
    <g id="do_something_luggage">
        <path id="Rectangle_1505" d="M0 0H280V280H0z" class="cls-1"/>
        <g id="do_something_luggage-2" transform="translate(36 56)">
            <g id="Group_707">
                <path id="Path_2107" fill="#ef590e" d="M3581.295-2669.818c31.668 0 59.891 23.136 59.891 60.712 0 37.412-28.223 60.547-59.891 60.547-31.5 0-59.727-23.135-59.727-60.547 0-37.576 28.223-60.712 59.727-60.712z" transform="translate(-3432.988 2669.818)"/>
                <g id="Group_706" transform="translate(0 2.461)">
                    <path id="Path_2108" d="M3406.636-2550.288v-116.337h41.677c33.145 0 57.43 21.5 57.43 58.251s-24.449 58.086-57.594 58.086z" class="cls-3" transform="translate(-3406.636 2666.625)"/>
                </g>
            </g>
            <g id="Group_709" transform="translate(.795 128.722)">
                <g id="Group_708">
                    <path id="Path_2109" d="M3427.84-2469.377c-.852 3.034-3.354 5.749-9.74 5.749-2.661 0-5.482-.372-7.718-2.129a6.365 6.365 0 0 1-1.969-2.555 8.275 8.275 0 0 1-.745-3.886v-5.482h6.866v4.365c0 1.384-.106 2.98 1.224 3.833a3.835 3.835 0 0 0 2.129.532 3.378 3.378 0 0 0 2.395-.691c1.012-.8 1.012-2.449 1.012-5a6.164 6.164 0 0 0-.745-3.459 6.242 6.242 0 0 0-1.6-1.49l-6.547-4.418a8.732 8.732 0 0 1-3.141-3.087c-.8-1.33-1.331-2.768-1.331-5.961a12.641 12.641 0 0 1 .905-5.163c2.13-4.578 8.57-4.578 9.314-4.578 1.119 0 7.132 0 9.1 4.95a6.416 6.416 0 0 1 .585 3.14v3.726h-6.92v-3.832c0-1.118-.425-2.715-3.087-2.715-1.6 0-3.087.586-3.087 3.726a7.034 7.034 0 0 0 .745 3.619 6.231 6.231 0 0 0 1.438 1.225l6.706 4.631a14.078 14.078 0 0 1 3.088 2.928c1.649 2.182 1.49 3.833 1.49 6.494a21.235 21.235 0 0 1-.367 5.528z" class="cls-3" transform="translate(-3407.667 2502.803)"/>
                    <path id="Path_2110" d="M3456.2-2466.13c-2.235 2.076-5.27 2.5-8.144 2.5-2.768 0-5.589-.372-7.825-2.182a6.087 6.087 0 0 1-1.863-2.342 10.164 10.164 0 0 1-.8-4.311v-21.078c0-.8-.159-4.578 2.342-6.813 1.384-1.224 3.993-2.448 8.2-2.448 5.43 0 8.3 2.236 9.422 4.418a10.4 10.4 0 0 1 .851 5v20.918c-.004 2.4-.376 4.582-2.183 6.338zm-4.791-26.772a6.6 6.6 0 0 0-.426-3.034 2.933 2.933 0 0 0-2.875-1.65 3.824 3.824 0 0 0-2.235.692c-1.543 1.064-1.331 2.714-1.331 4.258v19a5.955 5.955 0 0 0 .639 3.46 3.574 3.574 0 0 0 2.821 1.117 4.052 4.052 0 0 0 2.183-.639c1.278-.9 1.224-2.395 1.224-3.779z" class="cls-3" transform="translate(-3414.522 2502.803)"/>
                    <path id="Path_2111" d="M3493.3-2464.189l.639-32.574-6.068 32.574h-6.441l-6.227-32.574.533 32.574h-6.813v-37.578h11.277l4.418 26.294 4.471-26.294h11.124v37.578z" class="cls-3" transform="translate(-3421.711 2502.565)"/>
                    <path id="Path_2112" d="M3514.7-2464.189v-37.578h18.2v5.7h-11.284v8.835h10.645v5.7h-10.645v11.549h11.817v5.8z" class="cls-3" transform="translate(-3432.209 2502.565)"/>
                    <path id="Path_2113" d="M3553.663-2496.338v32.149h-6.973v-32.149h-6.919v-5.429h20.865v5.429z" class="cls-3" transform="translate(-3437.956 2502.565)"/>
                    <path id="Path_2114" d="M3581.822-2464.189v-17.192h-6.333v17.192h-6.92v-37.578h6.92v14.744h6.333v-14.744h6.919v37.578z" class="cls-3" transform="translate(-3444.559 2502.565)"/>
                    <path id="Path_2115" d="M3599.92-2464.189v-37.578h6.866v37.578z" class="cls-3" transform="translate(-3451.747 2502.565)"/>
                    <path id="Path_2116" d="M3626.568-2464.189l-6.654-28.157.585 28.157h-6.494v-37.578h8.889l6.761 27.572-.693-27.572h6.335v37.578z" class="cls-3" transform="translate(-3454.977 2502.565)"/>
                    <path id="Path_2117" d="M3660.778-2464.427v-2.235a11.376 11.376 0 0 1-1.49 1.437 8.58 8.58 0 0 1-5.216 1.6c-4.685 0-6.813-2.5-7.559-4.365a8.754 8.754 0 0 1-.532-3.3v-21.4a14.407 14.407 0 0 1 .692-5c1.544-4.152 6.174-5.11 10.006-5.11 3.034 0 7.132.639 9 3.461a7.088 7.088 0 0 1 1.011 3.991v5.482h-6.919v-3.619c0-1.277.106-2.555-1.171-3.353a3.774 3.774 0 0 0-2.076-.533 3.785 3.785 0 0 0-2.183.586c-1.064.745-1.331 1.916-1.331 4.258v19.854a5.389 5.389 0 0 0 .266 1.969c.319.8 1.012 1.7 2.981 1.7a3.345 3.345 0 0 0 2.714-.958c.852-.905.8-2.182.8-3.353v-5.855h-4.258v-5.642h11.178v20.386z" class="cls-3" transform="translate(-3462.308 2502.803)"/>
                </g>
            </g>
            <g id="luggage" transform="translate(119.426 11.105)">
                <path id="Path_2118" d="M3631.388-2585.927a.5.5 0 0 0-.622.475c-.015 1.614-1.2 11.866.664 13.295a.5.5 0 0 0 .855.34 10.119 10.119 0 0 0 2.853-8.262c-.328-2.121-1.508-5.159-3.75-5.848zm.465 13.023c-.835-1.176-.346-5.385-.328-6.391.035-1.8.157-3.6.205-5.4 1.479.945 2.085 3.363 2.4 4.888.499 2.419-.794 5.025-2.277 6.907z" class="cls-1" transform="translate(-3577.362 2639.483)"/>
                <path id="Path_2119" d="M3621.3-2592.534c.828-3.439-.318-6.6-1.632-9.743a.479.479 0 0 0 .02-.1c0-8.684 2.705-18.743-1.052-26.948-1.948-4.258-6.861-5.349-11.769-5.516a.137.137 0 0 0 .006-.024c0-5.286.06-10.569.107-15.854a.369.369 0 0 0-.009-.05 2.465 2.465 0 0 0 1.553-1.483c.253-.941-.671-1.875-1.436-2.248a3.773 3.773 0 0 0-2.835-.163.47.47 0 0 0-.187-.106 27.147 27.147 0 0 0-7.742-.4c-2.367.1-4.822-.369-7.152-.182a.337.337 0 0 0-.388 0 4.494 4.494 0 0 0-.829.71c-1.471-.419-3.775-.109-4 1.672-.119.944.606 1.577 1.49 1.881-.644 1.633 0 4.139.079 5.846.144 3.135 0 6.259.053 9.393a.5.5 0 0 0 .034.159 19.8 19.8 0 0 0-10.305 2.278.351.351 0 0 0-.191.307c-2.682.227-4.785.7-5.091 1.6a10.526 10.526 0 0 0-2.053.945c-4.026 2.428-6.167 7.9-5.863 12.422a.558.558 0 0 0 .034.134 43.931 43.931 0 0 0-.5 6.5c-.235 7.36.546 14.726.976 22.065a95.27 95.27 0 0 1 .177 10.368c-.179 3.594-.8 7.127-.767 10.733a.409.409 0 0 0-.278.334c-.548 2.914.271 4.72 3.273 5.307 1.542.3 3.1.49 4.663.641a3.714 3.714 0 0 0 4.824 3.359.528.528 0 0 0 .209-.124c1.2-.154 1.951-1.42 2.279-2.559a35.591 35.591 0 0 1 4.875.9 122.515 122.515 0 0 0 12.951 3.218 2.337 2.337 0 0 0 1.285 2.279 5.653 5.653 0 0 0 1.421.5 6.157 6.157 0 0 0 1.748.346.482.482 0 0 0 .378-.208c1.436.264 2.583-1.436 2.885-2.637a.559.559 0 0 0 0-.079 13.214 13.214 0 0 0 7.838-3.831 3.256 3.256 0 0 0 3.331-2.182c2.672-1.068 9.571-5.478 5.466-7.865a5.386 5.386 0 0 0 .324-1.722c.08-1.961-.359-3.972-.41-5.941-.077-3 .336-5.964.137-8.973.136-.216.267-.43.384-.641a16.937 16.937 0 0 0 1.689-4.318zm-3.02-34.912c1.538 4.032 1.172 8.755.893 12.971-.214 3.256-.453 6.473-.542 9.72a17.943 17.943 0 0 1-1.631-6.745.526.526 0 0 0-.523-.522 2.653 2.653 0 0 0-1.662.287v-1.847c-.049-3.972.456-9.156-1.148-12.891-1.6-3.709-4.8-5.136-8.613-5.793-.736-.128-8.683-.883-8.859-.012a.466.466 0 0 0-.039-.294 20.04 20.04 0 0 0 2.078-1.3.38.38 0 0 0 .059.023c6.96 1.2 16.721-2.16 19.984 6.403zm-36.914 24.064c2.223.11 3.013-2.163 2.987-4.167a2.482 2.482 0 0 1 .309-.021 12.85 12.85 0 0 1 .025 3.228c-.226 1.309-1.621 1.232-2.67 1.174-1.41-.079-3.735-.218-4.516-1.624-.533-.958-.231-2.557-.086-3.73l.485.027a.389.389 0 0 0 .258-.036c-.319 2.424.213 5.003 3.206 5.149zm-2.019-5.9a.613.613 0 0 0 .3-.155 24.662 24.662 0 0 0 3.525.363c.145 1.528.5 4.121-1.444 4.6a2.152 2.152 0 0 1-2.537-1.8 6.544 6.544 0 0 1 .153-3.003zm3.815-.711l-.783-.133a.418.418 0 0 0 .12-.306c-.032-1.619-.259-3.23-.379-4.843a.424.424 0 0 0-.848 0c-.08 1.615.224 3.231.271 4.843a.608.608 0 0 0 .041.179c-.636-.1-1.273-.182-1.909-.233-.9-2.347-.592-5.2-.367-7.625a17.634 17.634 0 0 1 2.11-7.811c1.624-2.618 4.56-4.378 7.115-5.96 1.113-.689 2.245-1.345 3.36-2.031 1.193-.734 3.43-.445 5.178-.274-3.83 2.567-8.471 3.774-11.712 7.225-4.384 4.671-1.665 11.321-2.2 16.974zm22.678-24.874c-.248 0-.493-.005-.739 0a69.46 69.46 0 0 0 .153-7.84c-.035-2.516.279-5.025-.187-7.506a6.69 6.69 0 0 0 1.013-.237c-.28 5.191-.243 10.394-.243 15.588zm.569-18.8c.4.115 1.317.751 1.058 1.271-.244.49-.993.718-1.47.87a8.11 8.11 0 0 1-1.6.264 14.848 14.848 0 0 0 0-2.537 5.811 5.811 0 0 1 2.009.133zm-2.429 3.443c.064.014.129.02.2.029a100.416 100.416 0 0 1-.106 15.342c-1.891.041-3.693.161-5.225.219a.422.422 0 0 0-.445-.4c-1.854-.026-4.49-.656-6.269-.167a4.589 4.589 0 0 0-.58.212.469.469 0 0 0-.15-.062c-1.051-.2-2.128-.363-3.215-.476.225-4.9.766-9.968.019-14.838a3.393 3.393 0 0 0 2.41-.108c3.678-1.314 8.373.716 12.1.467a2.266 2.266 0 0 0 1.074-.3.551.551 0 0 0 .184.083zm-15.106-4.127a.438.438 0 0 0 .1.011c2.351-.227 4.949.227 7.345.19 1.6-.026 3.19-.142 4.8-.1 2.45.061 2.03.293 2.19 2.012.149 1.6-8.5.521-9.474.507a13.658 13.658 0 0 0-3.512.194c-2.543.623-2.673-1.383-1.452-2.813zm-1.379 3.5a.307.307 0 0 0-.028.138c.206 5.053-.325 10.067-.2 15.109-.22-.017-.441-.031-.661-.043a.576.576 0 0 0 .045-.2 89.435 89.435 0 0 0-.383-15.053 3.145 3.145 0 0 0 1.134-.059c.022.037.058.069.09.105zm-2.527-2.1c.208-.889 1.415-.881 2.354-.79a2.989 2.989 0 0 0-.328 1.852c-.819-.011-2.238-.164-2.028-1.067zm5.222 18.717c-.624.4-1.239.843-1.8 1.206a.483.483 0 0 0-.105-.025c-1.057-.039-6.78-.382-11.547-.15 4.142-1.814 9.024-1.775 13.45-1.036zm-10.416 1.842c2.361.025 4.731.244 7.093.3-.567.356-1.127.719-1.67 1.1a.383.383 0 0 0-.234-.109c-4.161-.436-8.993-1.642-13.27-.83 2.107-.892 6.844-.479 8.08-.469zm-17 29.028c-.273-5.595-.94-12.373 1.321-17.639 2.606-6.079 9.927-3.04 14.893-3.7.488-.064.525-.8 0-.791-4.162.111-10.222-1.975-13.718 1.235a8.859 8.859 0 0 0-1.49 1.8 12.663 12.663 0 0 1 5.445-7.426c4.351-2.629 10.294-.394 15.109-.47a18.69 18.69 0 0 0-3.882 3.886c-1.7 2.353-1.951 5.58-2.263 8.373a18.338 18.338 0 0 0 .369 7.8.54.54 0 0 0-.076.158c-.093.338-.177.694-.243 1.058a.4.4 0 0 0-.149-.106 2.066 2.066 0 0 0-.968-.265.476.476 0 0 0-.588.448c-.167 1.586-.594 3.447.219 4.925.866 1.575 3.334 1.717 4.879 1.886 1.313.145 2.845.16 3.689-1.013.878-1.223.405-3.444.309-4.8a.519.519 0 0 0-.5-.5 2.363 2.363 0 0 0-.858-.008 5.394 5.394 0 0 0-.173-.777.455.455 0 0 0-.2-.246c1-4.948-1.136-10.069.809-14.562 2.008 0 3.972.721 5.958.963 2.269.275 4.585.188 6.614 1.392 2.586 1.535 3.1 5.707 3.608 8.374a59.848 59.848 0 0 1 .815 11.116c.013 6.125-.555 12.236-.646 18.358-.108 7.151.585 14.286.626 21.434-5.061.553-10.54-.886-15.423-2.249a21.348 21.348 0 0 0-5.945-.53 24.312 24.312 0 0 1-7.5-1.449c-3.15-.947-6.814.494-9.716-1.356-.086-5.6.9-11.115.753-16.73-.152-6.216-.776-12.4-1.077-18.594zm9.052 43.331a2.981 2.981 0 0 1-1.219-1.925q.8.07 1.6.135a2.555 2.555 0 0 0 .5 2.07 2.514 2.514 0 0 1-.88-.285zm2.643.153c-.954.056-1.255-1.083-1.226-1.857.191.016.38.036.571.052a.472.472 0 0 0-.005.229c.107.422.337.789.812.81.443.018.8-.489.812-.892l.426.039c-.23.71-.61 1.568-1.389 1.614zm22.654 4.2a1.862 1.862 0 0 1-1.387-1.443c.576.075 1.151.14 1.722.185a1.692 1.692 0 0 0 .149.923 2.872 2.872 0 0 0 .283.5 6.54 6.54 0 0 1-.766-.166zm3 .224c-.8.275-1.526-.666-1.622-1.417.31.013.616.012.926.013a.531.531 0 0 0-.1.33.653.653 0 0 0 .43.661.784.784 0 0 0 .96-.8.517.517 0 0 0-.047-.224c.237-.01.476-.015.71-.034-.3.598-.614 1.25-1.254 1.47zm10.051-6.813a.47.47 0 0 0-.476.3c-6.859 6.3-16.831 3.432-24.813 1.206a65.153 65.153 0 0 0-12.43-2.111c-1.792-.149-3.563-.464-5.352-.639-2.681-.262-4.735-.653-4.446-3.741 2.5 1.629 5.823 1.166 8.689 1.358 2.339.156 4.422 1.553 6.784 1.663 3.308.154 6.285.095 9.529.984 7.34 2.016 17.148 3.968 23.173-2.063-.085 1.762-.28 3.048-.655 3.042zm.591-12.932c.015.739.2 5.067.117 8.518a.483.483 0 0 0-.229.125 14.551 14.551 0 0 1-7.918 3.939c-.055-7.745-.832-15.468-.647-23.215.18-7.562.928-15.092.433-22.659-.3-4.59-.7-11.181-4.707-14.182-1.578-1.183-3.9-1.255-5.78-1.407-2.248-.183-4.553-1.026-6.824-1.021a9.709 9.709 0 0 1 1.289-1.713 16.735 16.735 0 0 1 4.7-3.3.467.467 0 0 0 .392.212c5.554.12 12.667-.976 16.962 3.365 2.943 2.975 2.829 8.447 2.937 12.3.12 4.23-.223 8.469-.427 12.692-.419 8.768-.47 17.568-.295 26.347zm2.281 11.34l-.015.005a.468.468 0 0 0-.053.032c.095-1.605.432-3.2.645-4.792.442-3.307-.04-6.944-.253-10.263a.459.459 0 0 0-.918 0c.038 3.8.591 7.65.063 11.431-.188 1.345-.95 3.587-.234 4.84a2.184 2.184 0 0 1-.95.661c1.317-2.364.683-9.51.656-10.7-.212-9.642-.252-19.261.165-28.9a144.8 144.8 0 0 0 .285-15.849c-.233-3.528-.772-7.141-3.12-9.907-3.748-4.416-11.079-3.7-16.486-3.615.823-.392 1.649-.781 2.458-1.193a.448.448 0 0 0 .192.222c1.376.793 3.786.338 5.306.316 4-.062 8.8.587 11.26 4.11 2.317 3.32 1.546 8.893 1.751 12.755.266 4.968-.2 9.94-.307 14.9-.162 7.794.175 15.647.47 23.436.075 1.887.567 8.986-.912 12.51zm1.152-.532a15 15 0 0 0 .367-1.679 5.53 5.53 0 0 0 2.837-1 .5.5 0 0 0-.5-.862 6.344 6.344 0 0 1-2.192.818c.026-.228.051-.455.069-.677a.4.4 0 0 0 .1-.024c1.618-.743 2.938-1.189 3.75-2.16 2.243 1.377-2.038 4.323-4.429 5.583zm.807-14.558a.5.5 0 0 0 .122-.015c2.168-.734 1.587-2.585 1.976-4.574a8.424 8.424 0 0 1 1.324-2.8c.063 3.427-.488 6.845-.183 10.279a19.024 19.024 0 0 1 .13 4.8c-.217 1.344-2.268 1.933-3.527 2.493.038-.626.059-1.192.08-1.651.134-2.838.136-5.681.081-8.533zm2.337-7.435a10.809 10.809 0 0 0-1.267 2.562c-.274.979.006 3.225-1.091 3.767-.12-5.029-.4-10.068-.495-15.056-.1-5.287.262-10.561.322-15.843h.008c1.593-.191 1.048 1 1.288 2.237a22.021 22.021 0 0 0 1.2 3.951c1.027 2.573 2.321 4.972 2.914 7.7.879 3.996-.981 7.346-2.876 10.681z" class="cls-1" transform="translate(-3561.59 2655.409)"/>
                <path id="Path_2120" d="M3607.429-2532.647c-1.07-.159-2.147-.284-3.22-.414-.32-.04-.451.475-.165.608a8.74 8.74 0 0 0 3.266.68c.497.025.619-.8.119-.874z" class="cls-1" transform="translate(-3571.288 2627.358)"/>
                <path id="Path_2121" d="M3613.86-2531.74a11.193 11.193 0 0 0 3.522-.886.419.419 0 0 0-.221-.809 18.071 18.071 0 0 1-3.3.975.36.36 0 0 0-.001.72z" class="cls-1" transform="translate(-3573.495 2627.447)"/>
                <path id="Path_2122" d="M3569.565-2538.649c-1.122-.132-2.389.069-3.386-.565-.515-.328-.924.447-.466.8 1.089.831 2.568.633 3.852.677.599.017.567-.846 0-.912z" class="cls-1" transform="translate(-3562.49 2628.786)"/>
            </g>
        </g>
    </g>
</svg>
