<svg xmlns="http://www.w3.org/2000/svg" width="280" height="280" viewBox="0 0 280 280">
    <defs>
        <style>
            .cls-3{fill:#ede1c5}.cls-4{fill:#009a51}
        </style>
    </defs>
    <g id="do_something_eat" transform="translate(-540 -279.872)">
        <g id="Group_748" transform="translate(539.926 279.798)">
            <path id="Rectangle_1519" fill="#0b9948" d="M0 0H280V280H0z" transform="translate(.074 .074)"/>
        </g>
        <g id="do_something_eat-2" transform="translate(576 335.872)">
            <g id="Group_750">
                <path id="Path_2170" fill="#efc20e" d="M2120.295-2669.818c31.668 0 59.891 23.136 59.891 60.712 0 37.411-28.223 60.547-59.891 60.547-31.5 0-59.727-23.135-59.727-60.547 0-37.576 28.223-60.712 59.727-60.712z" transform="translate(-1971.988 2669.818)"/>
                <g id="Group_749" transform="translate(0 2.461)">
                    <path id="Path_2171" d="M1945.636-2550.288v-116.337h41.677c33.145 0 57.43 21.5 57.43 58.251s-24.449 58.086-57.594 58.086z" class="cls-3" transform="translate(-1945.636 2666.625)"/>
                </g>
            </g>
            <g id="Group_752" transform="translate(.795 128.722)">
                <g id="Group_751">
                    <path id="Path_2172" d="M1966.84-2469.377c-.852 3.034-3.353 5.749-9.74 5.749-2.661 0-5.483-.372-7.718-2.129a6.357 6.357 0 0 1-1.969-2.555 8.272 8.272 0 0 1-.745-3.886v-5.482h6.866v4.365c0 1.384-.107 2.98 1.224 3.833a3.834 3.834 0 0 0 2.13.532 3.378 3.378 0 0 0 2.395-.692c1.012-.8 1.012-2.448 1.012-5a6.163 6.163 0 0 0-.745-3.459 6.24 6.24 0 0 0-1.6-1.49l-6.547-4.418a8.724 8.724 0 0 1-3.14-3.087c-.8-1.33-1.331-2.768-1.331-5.961a12.634 12.634 0 0 1 .905-5.163c2.13-4.578 8.57-4.578 9.315-4.578 1.118 0 7.132 0 9.1 4.95a6.411 6.411 0 0 1 .585 3.14v3.727h-6.919v-3.832c0-1.118-.426-2.715-3.087-2.715-1.6 0-3.087.586-3.087 3.726a7.03 7.03 0 0 0 .745 3.619 6.2 6.2 0 0 0 1.437 1.225l6.706 4.63a14.075 14.075 0 0 1 3.087 2.928c1.65 2.182 1.49 3.833 1.49 6.494a21.212 21.212 0 0 1-.369 5.529z" class="cls-3" transform="translate(-1946.667 2502.803)"/>
                    <path id="Path_2173" d="M1995.2-2466.13c-2.236 2.076-5.27 2.5-8.144 2.5-2.767 0-5.589-.372-7.824-2.182a6.085 6.085 0 0 1-1.863-2.342 10.176 10.176 0 0 1-.8-4.312v-21.077c0-.8-.16-4.578 2.342-6.813 1.384-1.224 3.992-2.449 8.2-2.449 5.429 0 8.3 2.236 9.421 4.418a10.393 10.393 0 0 1 .852 5v20.918c-.005 2.401-.377 4.584-2.184 6.339zm-4.791-26.772a6.6 6.6 0 0 0-.425-3.035 2.934 2.934 0 0 0-2.874-1.65 3.823 3.823 0 0 0-2.236.692c-1.544 1.064-1.331 2.714-1.331 4.258v19a5.949 5.949 0 0 0 .638 3.46 3.575 3.575 0 0 0 2.821 1.117 4.055 4.055 0 0 0 2.183-.639c1.277-.9 1.224-2.395 1.224-3.779z" class="cls-3" transform="translate(-1953.522 2502.803)"/>
                    <path id="Path_2174" d="M2032.3-2464.189l.639-32.575-6.068 32.575h-6.441l-6.228-32.575.533 32.575h-6.813v-37.578h11.278l4.418 26.295 4.471-26.295h11.125v37.578z" class="cls-3" transform="translate(-1960.711 2502.565)"/>
                    <path id="Path_2175" d="M2053.7-2464.189v-37.578h18.2v5.7h-11.284v8.835h10.645v5.7h-10.645v11.55h11.817v5.8z" class="cls-3" transform="translate(-1971.208 2502.565)"/>
                    <path id="Path_2176" d="M2092.663-2496.338v32.149h-6.973v-32.149h-6.92v-5.429h20.865v5.429z" class="cls-3" transform="translate(-1976.956 2502.565)"/>
                    <path id="Path_2177" d="M2120.822-2464.189v-17.192h-6.334v17.192h-6.919v-37.578h6.919v14.744h6.334v-14.744h6.92v37.578z" class="cls-3" transform="translate(-1983.558 2502.565)"/>
                    <path id="Path_2178" d="M2138.919-2464.189v-37.578h6.866v37.578z" class="cls-3" transform="translate(-1990.747 2502.565)"/>
                    <path id="Path_2179" d="M2165.568-2464.189l-6.654-28.157.585 28.157h-6.494v-37.578h8.889l6.76 27.572-.692-27.572h6.334v37.578z" class="cls-3" transform="translate(-1993.977 2502.565)"/>
                    <path id="Path_2180" d="M2199.777-2464.427v-2.235a11.412 11.412 0 0 1-1.49 1.437 8.578 8.578 0 0 1-5.216 1.6c-4.684 0-6.813-2.5-7.559-4.365a8.753 8.753 0 0 1-.532-3.3v-21.4a14.406 14.406 0 0 1 .692-5c1.544-4.152 6.174-5.11 10.006-5.11 3.034 0 7.133.639 9 3.461a7.087 7.087 0 0 1 1.011 3.991v5.482h-6.919v-3.619c0-1.277.106-2.555-1.171-3.353a3.775 3.775 0 0 0-2.076-.533 3.782 3.782 0 0 0-2.182.586c-1.065.745-1.331 1.916-1.331 4.258v19.854a5.382 5.382 0 0 0 .266 1.969c.32.8 1.012 1.7 2.981 1.7a3.346 3.346 0 0 0 2.714-.958c.852-.905.8-2.182.8-3.354v-5.855h-4.258v-5.642h11.177v20.385z" class="cls-3" transform="translate(-2001.307 2502.803)"/>
                </g>
            </g>
            <g id="Group_754" transform="translate(101.129 26.499)">
                <path id="Path_2181" d="M2171.179-2598.382a.972.972 0 0 1-.085.318.814.814 0 0 0-.038.8c.093.264.187.527.269.794a7.41 7.41 0 0 1 .355 2.477 1.054 1.054 0 0 0 .382.871 6.774 6.774 0 0 1 1.907 3.656c.032.162.059.325.09.5a2.314 2.314 0 0 0 .407.143 2.62 2.62 0 0 1 1.316.7.772.772 0 0 1 .144 1.114 4.945 4.945 0 0 1-.563.62 1.7 1.7 0 0 0-.49.951 6.209 6.209 0 0 1-.5 1.854.971.971 0 0 0-.037.488 1.324 1.324 0 0 1-1.337 1.5 12 12 0 0 1-1.339.009c-.542.4.127.679-.038 1.071a3.538 3.538 0 0 1-1.1.095 2.806 2.806 0 0 1-.667-.059 18.734 18.734 0 0 0-4.091-.243c-1.453 0-2.907-.006-4.36-.015-1.089-.007-2.179-.015-3.268-.038-2.011-.042-4.022-.079-6.031-.15-1.426-.049-2.847-.164-4.271-.222-1.618-.066-3.238-.105-4.857-.145q-3.31-.081-6.62-.142c-1.195-.022-2.391-.021-3.586-.039-.614-.009-1.231-.089-1.84-.048-.722.049-1.443.049-2.164.055-2.457.022-4.914.032-7.371.063-1.339.017-2.678.081-4.018.1-1.925.026-3.851.035-5.776.041-1.174 0-2.348-.013-3.521-.025-.307 0-.616-.013-.922-.036a59.963 59.963 0 0 0-6.871-.082c-1.507.058-3.011.181-4.515.3-.946.078-1.885.233-2.832.314-1.7.145-3.4.24-5.1.4-1.139.1-2.277.22-3.406.425-.849.155-1.72.2-2.583.272-.362.031-.725.031-1.088.031a4.421 4.421 0 0 1-.492-.053 1.142 1.142 0 0 1 .182-.9 1.229 1.229 0 0 0 .068-.888c-.08-.324-.119-.66-.2-.983a4.487 4.487 0 0 1 .083-1.991 33.973 33.973 0 0 1 1.01-3.706c.1-.31.252-.6.379-.9-.265-.132-.334.095-.47.159a.971.971 0 0 1-1.277-.209c-.077-.081-.152-.164-.223-.25a1.271 1.271 0 0 0-1.359-.6.835.835 0 0 1-.749-.293 2.515 2.515 0 0 1-.762-1.634 17.875 17.875 0 0 1-.086-3.013 3.276 3.276 0 0 1 1.446-2.613 5.348 5.348 0 0 1 1.847-.963 4.089 4.089 0 0 0 .42-.168 4.13 4.13 0 0 0 .276-.938 9.023 9.023 0 0 1 .657-2.155 8.721 8.721 0 0 1 1.186-1.818 1.3 1.3 0 0 0 .351-1 2.541 2.541 0 0 1 .778-2.047c.542-.6 1.1-1.192 1.694-1.74.8-.738 1.649-1.422 2.462-2.146a5.2 5.2 0 0 0 .662-.754 5.042 5.042 0 0 1 1.427-1.284 2.7 2.7 0 0 1 3.1-.13l.409-.34c-.006-.107.011-.173-.015-.213-.227-.35-.452-.7-.695-1.043a1.986 1.986 0 0 1-.263-1.973 4.272 4.272 0 0 1 2.369-2.466 1.4 1.4 0 0 1 .566-.116.825.825 0 0 1 .833.585 2.1 2.1 0 0 1 .072.325 4.442 4.442 0 0 0 1.686 2.61c.011.009.046-.009.127-.024a36.314 36.314 0 0 0-1.655-3.588 5.975 5.975 0 0 1 .426-.7c.923-1.156 1.843-2.318 2.8-3.446a6.732 6.732 0 0 1 1.139-.98 1.825 1.825 0 0 1 .688-.283.627.627 0 0 1 .788.634 3.87 3.87 0 0 1-.057.667 3.061 3.061 0 0 0 .232 1.881 1.148 1.148 0 0 1-.152 1.363 13.044 13.044 0 0 0 1.48 2.131 14.726 14.726 0 0 0 2.189-.781 1.679 1.679 0 0 0-.161-.924c-.254-.885-.518-1.77-.808-2.645-.228-.687-.486-1.366-.754-2.04a19.551 19.551 0 0 1-.893-2.524 1.567 1.567 0 0 1 .15-1.288 3.439 3.439 0 0 0 .267-.7c.028-.079.034-.165.061-.243a9.413 9.413 0 0 1 1.659-2.687.988.988 0 0 1 .348-.229c.323-.161.649-.317.979-.462a.9.9 0 0 1 .321-.065.284.284 0 0 1 .227.37.254.254 0 0 1-.052.066c-.149.126-.353.249-.314.461a2.236 2.236 0 0 0 .262.6.846.846 0 0 0 .215.255 13.225 13.225 0 0 1 2.08 2.22c.53-.182 1.052-.362 1.574-.539a31.667 31.667 0 0 1 5.19-1.308c.771-.122 1.542-.257 2.314-.375a2.378 2.378 0 0 1 .665-.022.429.429 0 0 1 .295.237c.057.171-.116.225-.251.255a3.379 3.379 0 0 1-.416.056 38.08 38.08 0 0 0-6.485 1.3c-.67.188-1.323.442-1.979.681a3.268 3.268 0 0 0-.5.281l1.253 2.353a14.958 14.958 0 0 1 3.147-1.3l.079-.724a1.309 1.309 0 0 1 .86-1.137 3.821 3.821 0 0 1 2.453-.222c.594.143 1.189.273 1.784.409-.008.346-.084.482-.3.455a8.673 8.673 0 0 1-.983-.191 4.49 4.49 0 0 0-1.566-.232 4.593 4.593 0 0 0-.821.141c-.8.242-.932.476-.839 1.4a3.431 3.431 0 0 1 .416.211.255.255 0 0 1 .1.2.251.251 0 0 1-.14.181 1.6 1.6 0 0 1-.573.081 2.186 2.186 0 0 0-1.14.2c-.337.137-.679.261-1.013.406a1.174 1.174 0 0 0-.7.554c-.064.134-.317.178-.505.274a1.1 1.1 0 0 0 .308.781c.418-.3.805-.617 1.231-.87a.958.958 0 0 1 1.335.222c.148.164.3.322.443.473.09-.044.154-.054.185-.093a9.827 9.827 0 0 1 5.551-3.355 4.693 4.693 0 0 1 1.081-.1 1.371 1.371 0 0 1 1.312.619 2.826 2.826 0 0 1 1.939-.732c.056-.281.1-.519.148-.759a1.377 1.377 0 0 1 .916-1.1 4.888 4.888 0 0 1 1.9-.223 7.147 7.147 0 0 1 1.487.241 2.344 2.344 0 0 1 .672.331.827.827 0 0 1 .268.31c.075.146.135.32-.025.457-.1.088-.279.119-.41-.122a.988.988 0 0 0-.674-.455 5.181 5.181 0 0 0-2.813-.094 1 1 0 0 0-.851 1.08c-.006.267.169.6-.124.774a1.682 1.682 0 0 1-.72.144 1.615 1.615 0 0 0-1.673 1.441 1.337 1.337 0 0 1-.43.787 3.382 3.382 0 0 0-1.127 1.533.824.824 0 0 1-.25.324.311.311 0 0 1-.226.029.159.159 0 0 1-.1-.115c-.01-.22 0-.441 0-.637a.707.707 0 0 0-.671-.075 9.339 9.339 0 0 0-3.339 1.292 4.288 4.288 0 0 0-1.623 1.506 3.041 3.041 0 0 0 .448 0 1.754 1.754 0 0 1 1.853.606 1.181 1.181 0 0 0 .91-.242 1.728 1.728 0 0 1 1.748-.222 1.7 1.7 0 0 0 1.209.113.432.432 0 0 1 .541.466.627.627 0 0 0 .2.506c.25.3.485.614.72.926a.763.763 0 0 1 .133.637.5.5 0 0 1-.447.427.56.56 0 0 1-.5-.48 1.436 1.436 0 0 1 .043-.33c.013-.081.037-.16.068-.281-.167-.2-.332-.424-.529-.618a.481.481 0 0 0-.356-.156c-.29.073-.4-.039-.491-.293-.039-.11-.185-.2-.3-.261a2.3 2.3 0 0 0-1.217-.209 2.206 2.206 0 0 1-1.85.56.473.473 0 0 1-.352-.185c-.288-.542-.777-.514-1.243-.419a9.574 9.574 0 0 0-1.771.5 20.847 20.847 0 0 0-5.046 3.112q-.587.473-1.145.981a1.819 1.819 0 0 0-.678.929c-.045.2-.255.359-.4.532-.318.389-.639.775-.957 1.163-.3.361-.451.85-.947 1.026a5.01 5.01 0 0 0-1.48 3.459c0 .352-.105.735.222 1.084a19.422 19.422 0 0 0 2.521-.729c.842-.2 1.676-.437 2.506-.681.855-.25 1.7-.528 2.569-.8.015-.257.013-.476.043-.69a1.641 1.641 0 0 1 .963-1.373 2.339 2.339 0 0 1 .225-.114 1.483 1.483 0 0 0 .807-.675 3.265 3.265 0 0 1 1.466-1.208 1.441 1.441 0 0 1 1.436.035c.072.043.148.078.271.144a5.852 5.852 0 0 1 4.386-1.7 6.452 6.452 0 0 1 1.115-1.559 1.3 1.3 0 0 1 .423-.236c.053-.019.167.043.206.1a.243.243 0 0 1 .005.224 4.759 4.759 0 0 1-.341.366 3.536 3.536 0 0 0-.615.887c.1 0 .162.02.194 0 .454-.323.9-.654 1.352-.982a.145.145 0 0 0 .057-.061c.19-.645.729-.672 1.266-.757.6-.1 1.2-.257 1.8-.394a6.031 6.031 0 0 1 4.143.588 8.124 8.124 0 0 1 2.924 2.456 1.456 1.456 0 0 0 .231.242 1.4 1.4 0 0 1 .462 1.125 5.437 5.437 0 0 1-.064.833c-.077.546-.084.544.244 1.171.028 0 .065.023.081.011a1.768 1.768 0 0 1 2.028.11c.268.149.51.341.741.5.418-.024.8-.056 1.189-.068a13.045 13.045 0 0 0 2.577-.31 8.545 8.545 0 0 0 1.419-.495 1.828 1.828 0 0 0 .664-.493 7.23 7.23 0 0 1 1.534-1.293 25.609 25.609 0 0 0 2.424-1.932 2.363 2.363 0 0 0 .193-.223c-.034-.083-.077-.177-.112-.274-.1-.286-.029-.486.237-.484a1.581 1.581 0 0 0 1.481-1.038c.024-.046.08-.076.125-.117.281-.059.4.1.484.388l-.366.486a.686.686 0 0 0 .118.145.341.341 0 0 0 .159.047 3.7 3.7 0 0 1 3.031 2.219c.146.268.257.556.386.839l4.674 1.876a3.191 3.191 0 0 1 2.582-.954 2.6 2.6 0 0 1 2.227 1.564c.165-.035.3-.055.428-.1a1.788 1.788 0 0 1 1.379.136 1.116 1.116 0 0 1 .626 1.452 2.115 2.115 0 0 1-1.113 1.3c-.629.3-1.281.544-1.931.794a4.262 4.262 0 0 1-1.9.215c-.557-.044-1.117-.049-1.675-.078a.7.7 0 0 0-.7.363c-.1.169-.193.34-.287.511a2.07 2.07 0 0 1-2.3 1.139 5.116 5.116 0 0 1-2.3-.968 11.11 11.11 0 0 1-1.156-1.087.877.877 0 0 1-.194-.36c-.015-.053.059-.146.114-.2a.165.165 0 0 1 .154-.016 1.63 1.63 0 0 1 .261.2c.33.3.65.615.99.905a4.65 4.65 0 0 0 2.109.977 1.518 1.518 0 0 0 1.826-.823 6.1 6.1 0 0 0 .327-.585.971.971 0 0 1 .856-.578 4.052 4.052 0 0 1 .5 0c.671.014 1.342.038 2.013.044a4.335 4.335 0 0 0 1.867-.409c.381-.175.761-.355 1.151-.505a1.748 1.748 0 0 0 .868-.978.617.617 0 0 0-.272-.8 1.341 1.341 0 0 0-1.208-.094c-.254.1-.482.3-.852.187a2.9 2.9 0 0 1-.119-.336 1.642 1.642 0 0 0-1.468-1.3 2.592 2.592 0 0 0-1.861.313c-.17.107-.321.244-.235.479.048.134.111.259-.022.379-.157.143-.317.08-.462-.009a23.83 23.83 0 0 0-3.92-1.661c-.022-.008-.053.008-.136.021-.2.385-.407.807-.637 1.216a15.945 15.945 0 0 1-2.525 3.328.907.907 0 0 1-.271.192c-.194.089-.316-.011-.407-.221a17.351 17.351 0 0 0 3.114-4.31l-.726-.179c-.021-.352-.037-.678-.062-1a1.124 1.124 0 0 0-.062-.4 3.666 3.666 0 0 0-2.5-2.17 2.671 2.671 0 0 0-.582-.04 1.324 1.324 0 0 0-1.041.447 18.979 18.979 0 0 1-3.432 2.808 3.81 3.81 0 0 0-1.1 1.1c.317-.061.47-.083.621-.12a.759.759 0 0 1 .648.06.749.749 0 0 0 .793.019 11.831 11.831 0 0 1 3.693-.67.293.293 0 0 1 .083-.006c.295.057.668.029.8.344.16.378-.218.535-.449.707-.514.382-1.049.734-1.625 1.134.347.409.653.766.956 1.128a4.491 4.491 0 0 1 .465.587c.228.389.093.643-.345.7-.162.022-.325.032-.6.058a5.406 5.406 0 0 0 .531.413 37.829 37.829 0 0 1 4.727 3.175 3.316 3.316 0 0 0 .594.3 1.149 1.149 0 0 0 .066.112l1.7 1.466c.8.688 1.613 1.365 2.4 2.067.582.516 1.148 1.051 1.7 1.6.654.645 1.3 1.3 1.927 1.97.609.649 1.206 1.312 1.783 1.99.758.892 1.513 1.787 2.228 2.713a29.782 29.782 0 0 1 2.161 3.071c.352.6.693 1.2 1.045 1.8.122.208.173.48.463.547a2.756 2.756 0 0 0 .609 1.616 2.56 2.56 0 0 1 .481 1.051 5.493 5.493 0 0 0 .344 1.03 1.01 1.01 0 0 0 .948.7 4.557 4.557 0 0 0 1-.08c.575-.111.724-.353.663-.945a.886.886 0 0 1 .014-.482 4.773 4.773 0 0 0 .469-1.509 3.363 3.363 0 0 1 1.078-2.032 1.337 1.337 0 0 0 .218-.312c-.142-.392-.48-.5-.744-.7-.4-.293-.792.026-1.212.021a2.16 2.16 0 0 1-.094-.429 6.392 6.392 0 0 0-1.495-3.826c-.078-.1-.176-.226-.315-.167l-.973 1.891c.038.148.075.339.136.522a4.738 4.738 0 0 1-.033 2.96 1.638 1.638 0 0 1-.542.828.42.42 0 0 1-.31.069c-.093-.021-.169-.123-.251-.189a3.293 3.293 0 0 1 .271-.412 1.987 1.987 0 0 0 .523-1.284 9.231 9.231 0 0 0-.04-1.247c-.066-.587-.085-.584-.677-.9-.02-.011-.026-.046-.061-.113a1.206 1.206 0 0 1 .5-.691 2.591 2.591 0 0 0 .779-1.351 1.4 1.4 0 0 0-.25-1.286c.224-.237.479-.458.4-.8a13.88 13.88 0 0 0-.446-2.029 6.549 6.549 0 0 1-.289-1.129.624.624 0 0 1 .222-.6c.186-.168.365-.029.548-.01zm-88.969 10.069a1.957 1.957 0 0 0-.273.4c-.135.365-.235.743-.357 1.113a20 20 0 0 0-.755 3.083 3.849 3.849 0 0 0 .08 1.352.409.409 0 0 0 .541-.219c.385-.58.781-1.155 1.136-1.754.724-1.225 1.431-2.461 2.131-3.7.288-.509.54-1.04.807-1.561.253-.5.491-1 .761-1.489.5-.9 1.021-1.792 1.52-2.664a.574.574 0 0 0-.011-.114 1.721 1.721 0 0 0-.088-.235 2.6 2.6 0 0 1 0-2.19c.208-.526.466-.939 1.136-.9.273.018.442-.219.431-.509a3.768 3.768 0 0 0-.086-.577 9.188 9.188 0 0 1-.265-1.736 3.863 3.863 0 0 0-.125-.669c-.128.071-.215.092-.259.149a37.591 37.591 0 0 0-2.81 4.156 11.736 11.736 0 0 0-.681 1.435 1.512 1.512 0 0 0-.144 1.142 2.258 2.258 0 0 1-.066 1.6 4.369 4.369 0 0 1-.384.23 1.436 1.436 0 0 0-.819 1.271 1.579 1.579 0 0 0 .22 1.12 1.271 1.271 0 0 1 .026 1.124.225.225 0 0 1-.193.113.479.479 0 0 1-.243-.183c-.039-.06-.015-.163-.012-.246a2.274 2.274 0 0 0-.485-1.318 3.644 3.644 0 0 0-.759 1.8zm28.99-32.187a1.776 1.776 0 0 0 .859-1.031c-.281-.9-.523-1.755-.817-2.6a13.851 13.851 0 0 0-1.253-2.733c-.188-.3-.362-.625-.821-.6a.221.221 0 0 1-.174-.364.393.393 0 0 0-.025-.588c-.279-.31-.574-.606-.863-.908a10.71 10.71 0 0 1-1.489-1.695c-.064-.1-.2-.159-.343-.263a3.819 3.819 0 0 0-.587.636 7.837 7.837 0 0 0-1.3 2.5 1.492 1.492 0 0 1-.237.533 1.043 1.043 0 0 0-.095.962c.184.526.366 1.053.562 1.574q.309.823.643 1.635a27.487 27.487 0 0 1 .937 2.947c.33 1.152.647 2.309.974 3.461.027.1.018.234.223.235.058-.048.146-.11.224-.185q1.655-1.6 3.306-3.2a2.127 2.127 0 0 0 .2-.263.387.387 0 0 1 .076-.053zm-21.282 18.166c-.055.063-.105.131-.165.19a1.28 1.28 0 0 0-.382 1.138c.091.748.151 1.5.261 2.245.079.538.218 1.067.347 1.68a4.549 4.549 0 0 0 .926-1.155c.3-.368.592-.741.911-1.092.338-.371.689-.734 1.061-1.07a6.119 6.119 0 0 0 1-.995 2.013 2.013 0 0 1-.192-.3c-.052-.128-.068-.271-.115-.4a.753.753 0 0 0-1.045-.546 3.4 3.4 0 0 0-1.5.875c-.174.174-.339.358-.54.571a1.408 1.408 0 0 1-.572-1.143c-.3-.163-.348-.486-.442-.76a13.359 13.359 0 0 1-.98-2.927 1.042 1.042 0 0 0-.274.1 7.239 7.239 0 0 0-2.059 3 2.141 2.141 0 0 0-.15.736 1.081 1.081 0 0 0 .278.969 3.15 3.15 0 0 0 .341-.336c.365-.494.712-1 1.082-1.492a2.328 2.328 0 0 1 .48-.458.335.335 0 0 1 .3.009.355.355 0 0 1 .148.272c-.021.25-.077.494-.385.579a.722.722 0 0 0-.337.223 9.011 9.011 0 0 0-.655.867q-1.156 1.792-2.29 3.6a32.9 32.9 0 0 0-2.123 3.986c-.4.9-.386.9.07 1.748-.351.341-.39.391-.515.377a.917.917 0 0 1-.471-.125 1.243 1.243 0 0 1-.383-.526 3.18 3.18 0 0 1 0-2.054 25.357 25.357 0 0 1 1.726-3.893 5.534 5.534 0 0 1 1.889-2.095c.182-.116.345-.263.507-.388-.034-.129-.048-.211-.077-.288a2.74 2.74 0 0 1 0-1.8 8.243 8.243 0 0 1 1.057-1.99 4.29 4.29 0 0 1 1.929-1.8.7.7 0 0 0 .325-.352c.191-.464.344-.944.519-1.415a2.212 2.212 0 0 1 1.543-1.621.984.984 0 0 0 .23-.139 6.133 6.133 0 0 1 1.152-2.057c-.079-.081-.112-.148-.154-.154a2.56 2.56 0 0 0-1.152.123 3.849 3.849 0 0 0-1.865 1.368 9.833 9.833 0 0 1-1.486 1.462 30.338 30.338 0 0 0-3.437 3.31 2.083 2.083 0 0 0-.66 1.5 2.323 2.323 0 0 1-.692 1.82 2.275 2.275 0 0 0-.16.193 6.76 6.76 0 0 0-1.286 2.969c-.067.411-.2.812-.29 1.219a.637.637 0 0 1-.434.471c-.182.07-.374.115-.558.18a5.132 5.132 0 0 0-1.981 1.22 2.3 2.3 0 0 0-.748 1.544c-.032.723-.052 1.448-.027 2.171a9.607 9.607 0 0 0 .193 1.489 1.869 1.869 0 0 0 .3.681.7.7 0 0 0 .961.211c.164-.082.278-.3.571-.153.1.546.61.847.967 1.265.24.28.439.284.711.006.331-.338.619-.717.926-1.078a6.008 6.008 0 0 1 .658-.755c.51-.427 1.057-.812 1.562-1.2a1.569 1.569 0 0 0 .065-1.168 1.618 1.618 0 0 1 0-.736 5.341 5.341 0 0 1 .694-1.787 52.715 52.715 0 0 1 3.662-5.6 1.123 1.123 0 0 1 1.228-.517zm22.761-7.2a3.276 3.276 0 0 1-.974.262 2.449 2.449 0 0 0-.976.163c-1.021.292-2.037.6-3.058.891-.752.215-1.511.4-2.26.63-.533.162-1.047.387-1.581.548a14.513 14.513 0 0 0-4.234 1.964c-.616.435-1.2.921-1.83 1.33a25.862 25.862 0 0 0-2.506 1.961c-.513.431-.988.907-1.5 1.346a15.371 15.371 0 0 0-2.664 2.877q-.475.69-.96 1.374-1.669 2.364-3.129 4.862c-.508.872-.88 1.808-1.35 2.694-.981 1.848-2.026 3.663-3.164 5.422a5.686 5.686 0 0 0-1.008 2.346c.395.2.395.2.571.648.736-.086 1.489-.143 2.23-.267a40.936 40.936 0 0 1 5.155-.577c1.732-.067 3.45-.28 5.173-.454 1.249-.127 2.5-.274 3.751-.352 1.282-.081 2.567-.1 3.852-.126.977-.019 1.955-.021 2.931.009 1.508.045 3.016.182 4.523.173 1.56-.009 3.118.134 4.68 0 .832-.071 1.675.007 2.511-.024 2.29-.085 4.58-.045 6.871-.138 2.148-.088 4.3-.06 6.451-.057 3.019 0 6.038 0 9.056.052 1.955.032 3.91.155 5.865.227 1.313.048 2.625.069 3.937.117 2.012.076 4.022.177 6.033.243 1.173.038 2.347.023 3.521.043 1.364.025 2.728.081 4.092.09 1.534.01 3.068-.039 4.6-.019.7.009 1.389.116 2.083.192a2.549 2.549 0 0 0 1 .008l.467-.749c-.2-.721-.41-1.471-.629-2.218a1.941 1.941 0 0 0-.193-.367c-.255-.465-.541-.915-.756-1.4a18.421 18.421 0 0 0-1.465-2.729c-.882-1.324-1.819-2.614-2.784-3.879a68.236 68.236 0 0 0-4.81-5.363 34.765 34.765 0 0 0-2.567-2.406c-1.777-1.532-3.588-3.02-5.478-4.416-1.423-1.051-2.964-1.893-4.474-2.794a.266.266 0 0 0-.073-.04 3.237 3.237 0 0 1-.641-.165 4.462 4.462 0 0 1-.523-.4.481.481 0 0 0-.207-.038c-.258.085-.319.462-.691.33a1.174 1.174 0 0 0-.782-.854c-.118-.033-.2-.191-.3-.28a2.291 2.291 0 0 0-1.192-.567c-.471-.058-.94-.14-1.405-.229a1.024 1.024 0 0 1-.922-.736.973.973 0 0 0-.136-.22c-.7.057-1.391.118-2.084.169a4.215 4.215 0 0 0-.915.057 1.273 1.273 0 0 1-1.18-.228 5.075 5.075 0 0 0-.79-.473.874.874 0 0 0-1.013.077c-.463.389-.482.365-.938-.105a1.181 1.181 0 0 0-.15-.111 2.556 2.556 0 0 1-1.3.113 5.814 5.814 0 0 0-.752 0 1.356 1.356 0 0 0-1.218.416c-.462-.027-.851-.056-1.24-.07-1.116-.04-2.234-.046-3.349-.116a36.016 36.016 0 0 0-7.437.308c-1.494.216-2.988.428-4.481.65a3.671 3.671 0 0 0-.523.164 1.865 1.865 0 0 1 .252.362.315.315 0 0 1-.037.284.342.342 0 0 1-.3.022.934.934 0 0 1-.554-.688 1.619 1.619 0 0 1 1.719-2 1.073 1.073 0 0 0 .863-.185 2.749 2.749 0 0 1 1.6-.411c.164 0 .328.017.471.026a2.86 2.86 0 0 0 .214-.191 4.387 4.387 0 0 1 2.809-1.513 4.121 4.121 0 0 0 .6-.162.457.457 0 0 0-.066-.579.558.558 0 0 0-.454-.169 5.2 5.2 0 0 0-2.171.541 3.633 3.633 0 0 0-1.577 1.328c-.083.143-.2.28-.425.2-.1-.145-.206-.312-.332-.459a.565.565 0 0 0-.806-.2 2.864 2.864 0 0 0-1.166.794 6.22 6.22 0 0 1-.626.869 4.88 4.88 0 0 1-1.035.521 1.04 1.04 0 0 0-.509.9.478.478 0 0 0 .245.5c.137.085.245.196.522.419zm-18.187.3a2.4 2.4 0 0 0-1.4-.665.656.656 0 0 0-.757.208c-.077.1-.238.123-.358.18l-.6-.262a1.551 1.551 0 0 0-1.333 1.167c-.034.106-.081.209-.121.313a14.809 14.809 0 0 1-.55 1.4 2.192 2.192 0 0 0-.055 2.013c.295.661.532 1.35.808 2.021.094.227.225.438.368.71.236-.146.421-.26.6-.375a3.984 3.984 0 0 1 1.263-.633 1.335 1.335 0 0 1 1.677.718c.026.039.093.052.185.1a5.916 5.916 0 0 0 .846-1.7c.144-.53.338-1.046.524-1.616a1.969 1.969 0 0 1-.327-.873 2.748 2.748 0 0 1 1.346-2.277.833.833 0 0 1 .4-.1 1.155 1.155 0 0 1 .976.391c.208.22.411.442.623.671a3.176 3.176 0 0 1 .676-.379 4.027 4.027 0 0 1 .828-.057 1.783 1.783 0 0 0 .213-.271.809.809 0 0 1 .933-.4 4.566 4.566 0 0 1 .643.179c.153.043.309.08.459.119a1.275 1.275 0 0 0 .165-.24 22.273 22.273 0 0 1 1.942-3.894 3.786 3.786 0 0 1 .379-.553.859.859 0 0 1 .391-.284.887.887 0 0 0 .558-.466 8.7 8.7 0 0 1 1.445-1.839c.032-.031.026-.1.039-.164l-.46-.134c-.264-.5-.118-1.125-.5-1.6a7.532 7.532 0 0 0-2.25.887c.142.37.287.7.391 1.046a1.607 1.607 0 0 1-.017.486 4.116 4.116 0 0 0-1.951.557 2.294 2.294 0 0 0-1.26 1.581 1.2 1.2 0 0 0 .239.94.632.632 0 0 0 .68.21.568.568 0 0 1 .315.053.235.235 0 0 1 .07.208.313.313 0 0 1-.15.188 1.184 1.184 0 0 1-1.536-.618c-.1-.254-.165-.522-.243-.776a.86.86 0 0 0-.671.7c-.093.287-.315.305-.491.07-.1-.127-.177-.264-.293-.438-.338.178-.721.144-.964.462.523.414.523.414.551.761a.624.624 0 0 1-.237.05 1.344 1.344 0 0 0-1.167.35 16.064 16.064 0 0 0-2.274 2.211 6.905 6.905 0 0 1-.679.738.308.308 0 0 1-.293-.03.32.32 0 0 1-.087-.289c.13-.243.299-.467.488-.752zm31.208-6.253c.083.029.134.051.188.063a2.34 2.34 0 0 1 1.683 1.26 1.743 1.743 0 0 0 .323.372c.382.4.767.805 1.145 1.212a.352.352 0 0 1 .111.219.509.509 0 0 1-.127.284c-.044.049-.192.079-.225.047-.25-.247-.651-.36-.754-.731a.732.732 0 0 0-.795-.58c-.356-.015-.467-.15-.376-.486a.57.57 0 0 0-.212-.656 1.241 1.241 0 0 0-1.982.307l.167.64a3.275 3.275 0 0 1-.514.164 2.98 2.98 0 0 1-.51-.018c-.052.242-.113.454-.14.672a1.241 1.241 0 0 1-.386.728.964.964 0 0 1-1 .285.662.662 0 0 1-.442-.735c.025-.322-.175-.5-.343-.726a.89.89 0 0 0-.946-.353 4.466 4.466 0 0 0-2.24 1.063.653.653 0 0 0-.159.192c-.084.155-.141.382.035.444.375.132.167.465.265.687.75-.09 1.466-.213 2.186-.255a54.7 54.7 0 0 1 6.2.013c.781.043 1.562.074 2.343.1a1.171 1.171 0 0 0 .407-.065 7.191 7.191 0 0 1 2.235-.281c.415-.009.83 0 1.286 0l-.063-.655c.714-.574.548-.556.55-1.151a3.706 3.706 0 0 0-.058-.484l-.551-.384c.023-.526-.39-.79-.7-1.082a7.274 7.274 0 0 0-3.031-1.876 4.681 4.681 0 0 0-2.724-.088c-.122.04-.172.127-.1.267.351 0 .709-.022 1.063 0a2.554 2.554 0 0 1 1.83.877.773.773 0 0 1 .166.778c-.043.141-.132.261-.292.249a.237.237 0 0 1-.245-.276c.067-.338-.128-.521-.36-.693a2.664 2.664 0 0 0-2.706-.049.507.507 0 0 0-.202.704zm-22.324-1.866c-.483-.9-1.142-1.665-1.582-2.579.133-.162.235-.289.341-.413a.39.39 0 0 0 .07-.466 3.818 3.818 0 0 1-.339-2.361 4.109 4.109 0 0 0-.02-.562 2.017 2.017 0 0 0-1.26.674c-.193.2-.354.432-.552.628a36.926 36.926 0 0 0-2.808 3.482 7.416 7.416 0 0 0 .324.758 26.626 26.626 0 0 1 1.757 3.881 1.342 1.342 0 0 0 .4.718c.335.051.5-.192.687-.392q1.07-1.116 2.149-2.226c.12-.123.242-.233.2-.428s.082-.312.219-.416.263-.186.412-.294zm11.663-3.577a.606.606 0 0 1 .172-.895 14.123 14.123 0 0 1 2.325-1.628 10.011 10.011 0 0 1 2.691-.876 5.9 5.9 0 0 1 1.236-.014c.144-.179.26-.335.391-.478s.274-.279.415-.416a1.158 1.158 0 0 0 .259-1.435.607.607 0 0 0-.587-.383 5.122 5.122 0 0 0-1.891.3 10.842 10.842 0 0 0-2.9 1.471 5.181 5.181 0 0 0-1.376 1.322c.028.1.056.174.073.255.071.342-.039.5-.336.506a1.093 1.093 0 0 1-.888-.388 3.377 3.377 0 0 0-.742-.748c-.884.04-1.2.786-1.735 1.244a3.756 3.756 0 0 0 .128.5c.145.353.219.742.648.922.206.087.156.361-.069.558q-1.228 1.078-2.458 2.153a1.563 1.563 0 0 0-.6.792c.809-.517 1.622-1.02 2.453-1.481.868-.479 1.812-.836 2.789-1.278zm-19.687 9.793c.248-.332.485-.608.676-.914a1.125 1.125 0 0 1 1.269-.591.838.838 0 0 0 .272-.053 7.271 7.271 0 0 0 .5-.749.975.975 0 0 0-.082-1.1 6.093 6.093 0 0 0-.7-.827 4.578 4.578 0 0 1-1.3-2.208c-.07-.236-.16-.465-.23-.668a.868.868 0 0 0-.216-.05 1.491 1.491 0 0 0-.324.069 3.8 3.8 0 0 0-1.846 1.632 1.708 1.708 0 0 0 .073 2.169 5.7 5.7 0 0 1 .521.76.942.942 0 0 1-.449 1.459c-.224.113-.471.181-.693.3a1.461 1.461 0 0 0-.781 1.466 2.7 2.7 0 0 0 .52-.247c.487-.374.956-.771 1.435-1.156a4.354 4.354 0 0 1 .473-.347.406.406 0 0 1 .632.294c.049.233-.029.506.247.764zm6.834 4.063c.061-.937-.035-1.1-.774-1.329-.384-.121-.586-.019-.7.36-.059.2 0 .459-.312.591-.142-.066-.317-.144-.49-.225a.568.568 0 0 0-.691.128 4.825 4.825 0 0 0-.338.468c-.078.1-.171.2-.288.332-.476-.6-.713-1.336-1.477-1.693a2.313 2.313 0 0 0-1.313 1.683.726.726 0 0 0 .16.629l.471.607a2.625 2.625 0 0 0-.881 1.7 4.894 4.894 0 0 1-.414 1c-.039.093-.072.188-.124.325.344 0 .5-.224.686-.365.6-.453 1.191-.924 1.791-1.38.244-.186.524-.327.754-.526a11.639 11.639 0 0 1 3.27-2c.234-.092.456-.205.668-.302zm21.624-6.681a3.382 3.382 0 0 1 1.229-1.588c.01-.85.01-.848.66-1.433.017-.015-.019-.09-.037-.171a9.649 9.649 0 0 0-1.482.506 5.433 5.433 0 0 0-1.763 1.09 1.752 1.752 0 0 0-.679 1.208c-.038.384.059.561.471.746a.471.471 0 0 1 .3.529c-.011.183 0 .368 0 .579.846-.1.61-.837.823-1.3zm-41.793 19.916a12.1 12.1 0 0 0 1.122-2.012c.377-.65.745-1.306 1.108-1.964a13.114 13.114 0 0 0 1.171-2.1 2.373 2.373 0 0 0-.378.173 4.408 4.408 0 0 0-.909.972 17.832 17.832 0 0 0-1.55 3.048 15.51 15.51 0 0 0-.527 1.494 1.741 1.741 0 0 0-.039.393zm63.457-17.017c.384.222.568.344.765.435a.474.474 0 0 0 .324.036 5.3 5.3 0 0 0 2.319-1.2c.027-.029.011-.1.016-.163a2.786 2.786 0 0 0-1.376.055c-.356.046-.709.123-1.063.183-.399.067-.453.544-.987.658zm-30.337.2a9.417 9.417 0 0 0 2.864-.549 2.333 2.333 0 0 1-.427-.289 1.131 1.131 0 0 0-1.312-.234 4.785 4.785 0 0 0-.833.39.577.577 0 0 0-.294.688zm-26.171 13.7a1.846 1.846 0 0 0-.92 1.323 1.441 1.441 0 0 0 .11 1.094c.1-.027.18-.023.2-.056.481-.7.98-1.395 1.446-2.149zm57.737-12.166c-.236-.256-.371-.393-.495-.539a1.93 1.93 0 0 0-1.648-.573.347.347 0 0 0-.35.42 3.331 3.331 0 0 1 .54.317 3.165 3.165 0 0 0 1.385.518c.127.045.292-.058.565-.132zm-52.183-2.343a4.127 4.127 0 0 0-1.231.958l1.711.772.57-.606c-.87.032-.761-.672-1.052-1.113zm54.1 2.973a4.645 4.645 0 0 0-1.193-1.258.222.222 0 0 0-.327.157l.575 1.179a2.221 2.221 0 0 0 .946-.066zm-3.946-2.448c-.174-.263-.328-.377-.54-.337a1.051 1.051 0 0 0-.867.962c0 .1.032.25.1.289.143.083.249-.021.314-.158.191-.387.6-.516.994-.744zm-2.22.808c.092-.3.259-.539.1-.837a1.209 1.209 0 0 0-1.088.394.918.918 0 0 0 .989.455zm-46.514-.781l.123.133 1.36-1.105a2.019 2.019 0 0 0-.321-.208 1.506 1.506 0 0 0-.329-.055 7.627 7.627 0 0 0-.832 1.248zm18.475-.207c-.52-.213-.776-.035-.938.639h.745zm-10.851-5.273a1.629 1.629 0 0 0-.712.726c.328-.1.558-.164.779-.249s.199-.202-.067-.464zm-4.688 2.664c-.182.16-.293.279-.178.466.378-.085.378-.085.179-.453z" class="cls-4" transform="translate(-2076.849 2634.704)"/>
                <path id="Path_2182" d="M2167.261-2604.466a1.106 1.106 0 0 1-.067-.112.719.719 0 0 1 .09-.637 2.034 2.034 0 0 0 1.285-.142c.133-.042.272-.069.4-.113a2.538 2.538 0 0 1 2.28.16c.181-.325.332-.621.507-.9a2.2 2.2 0 0 1 2.231-1.013 1.479 1.479 0 0 1 1.071.591 4.288 4.288 0 0 1 .748 1.2c.083.236.2.461.289.675.078.024.136.065.181.055a6.337 6.337 0 0 1 2.9.236c.3.069.59.167.888.243a4.648 4.648 0 0 1 2.271 1.354 16.569 16.569 0 0 1 1.805 2.2c.224-.39.237-.433.165-.6-.065-.154-.151-.3-.223-.45a2.117 2.117 0 0 1 .715-2.8c.434-.311.457-.7.022-1a1.574 1.574 0 0 0-.688-.275 3.586 3.586 0 0 0-1.656.108 2.974 2.974 0 0 1-1.887-.1 1.178 1.178 0 0 1-.726-.768 2.884 2.884 0 0 1-.241-1.961 1.144 1.144 0 0 0-.128-.952 27.082 27.082 0 0 0-1.947-3.129c-.391-.542-.746-1.11-1.084-1.617a14.479 14.479 0 0 1 2.049-5.075c-.151-.326-.151-.326-.505-.469a12.888 12.888 0 0 0-1.649 1.745c-.073.084-.128.185-.2.268a.607.607 0 0 1-.884.184c-.276-.135-.543-.288-.826-.4a2.916 2.916 0 0 0-.524-.117.914.914 0 0 0-.186.109c-.544.59-.691.625-1.364.306-.152-.072-.3-.155-.449-.226a.935.935 0 0 1-.523-.617 10.219 10.219 0 0 0-.764-1.856 2.815 2.815 0 0 1-.27-.873 1.447 1.447 0 0 0-1.539-1.356 22.532 22.532 0 0 0-3.35-.015 1.871 1.871 0 0 1-.99-.075.511.511 0 0 0-.392.019 4.4 4.4 0 0 0-1.72 1.56c.078.2.145.383.216.562a1.329 1.329 0 0 1 .022.978 6.172 6.172 0 0 0-.17.767 1.205 1.205 0 0 1-.855-.054.294.294 0 0 1-.077-.275.942.942 0 0 1 .3-.275.782.782 0 0 0 .176-1.117 1.992 1.992 0 0 0-1.23-1 2.015 2.015 0 0 0-.187.089c-.3.18-.481.176-.644-.039-.067-.087-.1-.2-.16-.292a1.7 1.7 0 0 0-.821-.68 7.748 7.748 0 0 0-3.364-.543 1.571 1.571 0 0 0-.985.343c0 .068.006.172 0 .276-.02.279-.21.4-.435.281a3.764 3.764 0 0 1-.342-.24c-.226-.159-.453-.316-.65-.453l-.586.147a.767.767 0 0 1-.3-.693 1.133 1.133 0 0 0-.185-.8 1.573 1.573 0 0 0-1.871-.753 2.425 2.425 0 0 0-1.156.651.973.973 0 0 0 .112.879 1.081 1.081 0 0 1-.091 1.45 1.256 1.256 0 0 0-.213.448c-.053.15-.154.263-.3.228a.472.472 0 0 1-.3-.237c-.256-.737-.248-.74-.954-1.06-.112.128-.228.273-.356.405a.341.341 0 0 1-.448.1c-.153-.093-.282-.262-.218-.418.264-.643-.173-.992-.536-1.374a6.256 6.256 0 0 0-1.384-1.078 3.223 3.223 0 0 0-1.591-.46c-.11 0-.252-.024-.322.033-.332.27-.754.168-1.122.291a3.421 3.421 0 0 1-1.065.157 1.962 1.962 0 0 0-.929.325 9.191 9.191 0 0 0-2.787 2.376 1.993 1.993 0 0 0-.488 1.134.71.71 0 0 1-.12.3c-.024.042-.1.089-.137.079-.07-.019-.172-.067-.187-.122a1.475 1.475 0 0 1 .148-1.211 7.043 7.043 0 0 1 .968-1.255 10.175 10.175 0 0 1 2.865-2.008 1.654 1.654 0 0 1 .63-.183 3.141 3.141 0 0 0 1.142-.236c.051-.021.107-.033.16-.051a4.077 4.077 0 0 1 4.026 1 12.857 12.857 0 0 1 1.143 1.22c.112.119.236.3.372.314a3.8 3.8 0 0 1 1.544.789.272.272 0 0 0 .216-.384c-.077-.238-.193-.462-.288-.7a1.119 1.119 0 0 1 .429-1.464 3.066 3.066 0 0 1 2.239-.494 1.877 1.877 0 0 1 1.384 1.113 3.865 3.865 0 0 0 .909 1.073 2.016 2.016 0 0 0 .447.253 3.875 3.875 0 0 1 2.885-.522 9.314 9.314 0 0 1 2.275.55 1.381 1.381 0 0 0 .355.039 3.871 3.871 0 0 0-.084-1.025.915.915 0 0 0-.421-.6c-.3-.2-.6-.406-.908-.6a1.8 1.8 0 0 1-.807-1.115c-.408-1.46-.492-2.974-.778-4.454a8.748 8.748 0 0 1-.081-.951 5.144 5.144 0 0 0-.743.006c-.763.116-.958.295-.966 1.073-.008.805.077 1.612.126 2.419.014.222.072.442.07.664a.727.727 0 0 1-.55.74 2.512 2.512 0 0 1-1.411.262 3.405 3.405 0 0 0-1.952-1.986c-.037-.077-.086-.129-.08-.175a9.449 9.449 0 0 1 .726-3.079c.124-.25.251-.5.4-.738a.873.873 0 0 0 .058-.8 2.2 2.2 0 0 0-1.6-1.452c-.187-.055-.387-.063-.577-.11a2.9 2.9 0 0 0-2.089.417 2.231 2.231 0 0 0-1.115 1.594 6.079 6.079 0 0 1-.471 1.247c-.219.482-.479.946-.714 1.421-.3.6-.563 1.217-.881 1.806s-.677 1.154-1.031 1.721a.318.318 0 0 1-.506.043.3.3 0 0 1-.005-.447 4.64 4.64 0 0 0 1.119-1.741c.307-.562.566-1.152.84-1.732a3.012 3.012 0 0 0 .109-.357 3.008 3.008 0 0 0-.393-.152 24.837 24.837 0 0 0-6.414-.512c-1.342.052-2.67.2-4 .368-.245.031-.479.142-.724.188a.245.245 0 0 1-.31-.205.347.347 0 0 1 .111-.28 1.17 1.17 0 0 1 .464-.168 37.112 37.112 0 0 1 4.33-.449c.947-.011 1.9-.089 2.84-.011a25.578 25.578 0 0 1 3.893.567c.134.032.271.055.414.085a1.93 1.93 0 0 0 .762-1.357 3.251 3.251 0 0 1 3.225-2.647 3.656 3.656 0 0 1 2.734 1.08 2.372 2.372 0 0 1 .61 1.353 1.224 1.224 0 0 1-.241.87 2.87 2.87 0 0 0-.534 1.21l2.122.733c.023-.191.055-.372.065-.553s0-.391 0-.633a2.774 2.774 0 0 1 2.555-.858.4.4 0 0 1 .371.474 4.276 4.276 0 0 0 .156 1.82c.042.247.093.493.136.726a6.527 6.527 0 0 0 2.005 1.194 40.652 40.652 0 0 1 4.763 2.622q1.488.933 2.923 1.95a1.077 1.077 0 0 0 .914.265 3.143 3.143 0 0 1 1.568.158 1.729 1.729 0 0 1 1.328 1.464 4.228 4.228 0 0 0 .514 1.405 3.742 3.742 0 0 1 .409 1 1.282 1.282 0 0 0 1.25 1.11c.074-.036.14-.047.171-.086.45-.573.642-.638 1.268-.406.209.077.411.174.617.261l.57.24 1.672-1.854a2.985 2.985 0 0 1 .35-.357.544.544 0 0 1 .812.016c.3.239.688.406.729.863a.452.452 0 0 1-.049.158 13.791 13.791 0 0 0-2.024 4.289 1.178 1.178 0 0 0 .246 1.1c.3.436.591.883.913 1.3a18.421 18.421 0 0 1 1.826 3.1 1.141 1.141 0 0 1 .07.957 2.462 2.462 0 0 0 .333 1.922.541.541 0 0 0 .314.254 2.441 2.441 0 0 0 1.312.073 4.566 4.566 0 0 1 2.313-.053 2.633 2.633 0 0 1 .764.328 1.153 1.153 0 0 1 .38 1.417c-.069.136-.236.225-.358.335a2.907 2.907 0 0 0-.6.561 1.781 1.781 0 0 0-.1 1.611c.061.155.162.294.235.444a.931.931 0 0 1 .1.729 1.451 1.451 0 0 0 .35 1.477 1.269 1.269 0 0 1 .274.777 1 1 0 0 1-.559.957.389.389 0 0 1-.554-.2 2.435 2.435 0 0 1-.059-.494c-.019-.276.031-.566-.194-.79l.02.043a2.134 2.134 0 0 0-.45-1.239 12.748 12.748 0 0 0-.762-1.1 5.787 5.787 0 0 0-3.489-2.432c-1.056-.194-2.087-.661-3.205-.3-.324.105-.535-.047-.664-.354-.055-.128-.074-.271-.13-.4a5.4 5.4 0 0 0-.777-1.379 1.12 1.12 0 0 0-.95-.451 1.743 1.743 0 0 0-1.576.927c-.133.275-.231.568-.345.852-.062.154-.117.312-.192.459a.248.248 0 0 1-.366.056 1.134 1.134 0 0 1-.221-.243 1.033 1.033 0 0 0-1.167-.455c-.383.067-.76.176-1.138.273-.492.141-.974.273-1.458.402zm-5.308-17.137c.233-.227.422-.431.633-.609.362-.305.73-.6 1.112-.884a.9.9 0 0 1 .948-.173c.517.308.943.095 1.445-.048-.069-.109-.1-.2-.156-.24-.505-.346-1-.7-1.529-1.019-1.531-.918-3.047-1.863-4.644-2.669-.72-.364-1.485-.59-2.284-.917a2.019 2.019 0 0 0 0 .381c.1.408.234.807.3 1.219a1.345 1.345 0 0 0 .732 1.052c.124.065.231.159.356.223a1.943 1.943 0 0 1 1.126 1.648 2.376 2.376 0 0 0 .442 1.331zm-7.613-5.8l-.048-.523c-.015-.163-.028-.333-.048-.5-.029-.248-.058-.5-.1-.741-.049-.311-.387-.271-.562-.447a2.562 2.562 0 0 0-1.795-.62 1.8 1.8 0 0 0-.209 1.365 4.681 4.681 0 0 1 1.709 1.852 2.057 2.057 0 0 0 1.052-.391z" class="cls-4" transform="translate(-2089.796 2635.436)"/>
                <path id="Path_2183" d="M2121.826-2609.166a.889.889 0 0 1-.178.11.522.522 0 0 1-.665-.16.237.237 0 0 1 .037-.22.546.546 0 0 1 .744.048c.036.033.03.101.062.222z" class="cls-4" transform="translate(-2086.965 2629.503)"/>
                <path id="Path_2184" d="M2118.442-2607.34c-.515.17-.674.147-.814-.1a.316.316 0 0 1 .039-.291.29.29 0 0 1 .28-.046 4.048 4.048 0 0 1 .495.437z" class="cls-4" transform="translate(-2086.195 2629.1)"/>
                <path id="Path_2185" d="M2124.929-2612.7a1 1 0 0 1-.273.157c-.035.007-.128-.1-.132-.157-.008-.116.062-.214.2-.183.057.014.104.089.205.183z" class="cls-4" transform="translate(-2087.78 2630.267)"/>
                <path id="Path_2186" d="M2121.1-2617.24a.711.711 0 0 1-.591-.244.462.462 0 0 1 .015-.667.244.244 0 0 1 .446.079c.079.256.137.519.2.779a.39.39 0 0 0-.07.053z" class="cls-4" transform="translate(-2086.83 2631.499)"/>
                <path id="Path_2187" d="M2129.313-2582.851a4.443 4.443 0 0 1 1.4-2.659.715.715 0 0 1 .756-.231.409.409 0 0 1 .193.234c.018.049-.056.143-.107.2a.224.224 0 0 1-.15.06.745.745 0 0 0-.608.39 3.994 3.994 0 0 0-.907 2.116 2.125 2.125 0 0 0 .058.735 3.673 3.673 0 0 0 1.446 1.888.9.9 0 0 0 .8.131c.453-.128.894-.3 1.34-.455a4.826 4.826 0 0 1 .629-.206c.073-.014.192.08.248.155a.231.231 0 0 1-.06.217 4.685 4.685 0 0 1-2.668.813 1.169 1.169 0 0 1-.686-.258 5.17 5.17 0 0 1-1.378-1.655 2.905 2.905 0 0 1-.306-1.475z" class="cls-4" transform="translate(-2088.878 2624.051)"/>
                <path id="Path_2188" d="M2108.092-2575.25c.118-.032.386-.1.653-.176a4.55 4.55 0 0 1 .56-.166 1.117 1.117 0 0 1 .489.039c.076.025.138.163.158.26.01.05-.076.163-.136.178-.619.15-1.236.31-1.863.418a1.114 1.114 0 0 1-1.073-.33 4.892 4.892 0 0 1-.712-.914 1.544 1.544 0 0 1 .188-1.8c.37-.451.759-.888 1.137-1.333a.856.856 0 0 1 .653-.323.951.951 0 0 1 .445.174c.109.065.054.355-.052.343-.549-.071-.77.357-1.064.672-.227.243-.436.5-.661.75a1.018 1.018 0 0 0-.163 1.234 4.988 4.988 0 0 0 .407.625c.213.31.521.399 1.034.349z" class="cls-4" transform="translate(-2083.525 2622.587)"/>
                <path id="Path_2189" d="M2169.463-2571.083a1.375 1.375 0 0 1-.909 1.412 5.032 5.032 0 0 1-.652.154 1.544 1.544 0 0 1-1.706-.746 1.617 1.617 0 0 1 .2-1.871 2.774 2.774 0 0 1 1.481-.882.266.266 0 0 1 .22.07.182.182 0 0 1-.04.286c-.2.145-.424.267-.631.406a3.453 3.453 0 0 0-.536.391 1.054 1.054 0 0 0 .173 1.712.885.885 0 0 0 .548.143 3.563 3.563 0 0 0 .956-.28.615.615 0 0 0 .354-.7 3.159 3.159 0 0 1-.084-.408.483.483 0 0 1 .1-.29c.068-.085.3-.016.352.113.086.205.148.416.174.49z" class="cls-4" transform="translate(-2097.286 2621.125)"/>
                <path id="Path_2190" d="M2157.923-2597.729c-.03.1-.029.174-.063.2a.509.509 0 0 1-.216.116 7.675 7.675 0 0 0-4.011 2.065.251.251 0 0 1-.139.086c-.1 0-.237.018-.3-.038a.309.309 0 0 1-.074-.287 1.557 1.557 0 0 1 .365-.447 10.406 10.406 0 0 1 3.214-1.742 3.591 3.591 0 0 1 .984-.1c.084-.003.17.101.24.147z" class="cls-4" transform="translate(-2094.334 2626.824)"/>
                <path id="Path_2191" d="M2104.835-2591.128a2.211 2.211 0 0 1 .265.074c.159.068.211.345.065.41a1.814 1.814 0 0 0-.873.968.632.632 0 0 0 .368.941c.152.065.326.088.469.167.077.042.169.177.151.242a.335.335 0 0 1-.23.2 1.21 1.21 0 0 1-1.353-1.38 2.959 2.959 0 0 1 .86-1.494.918.918 0 0 1 .278-.128z" class="cls-4" transform="translate(-2082.999 2625.277)"/>
                <path id="Path_2192" d="M2171.682-2590.37a.868.868 0 0 1-.993-.14 1.242 1.242 0 0 1-.587-.781 1.048 1.048 0 0 1 .657-1.136 4.274 4.274 0 0 1 .984-.144c.207-.015.36.139.333.283a.3.3 0 0 1-.3.238 5.428 5.428 0 0 0-.737.089.468.468 0 0 0-.224.832 1.555 1.555 0 0 0 .715.411c.152.047.204.172.152.348z" class="cls-4" transform="translate(-2098.227 2625.608)"/>
                <path id="Path_2193" d="M2158.561-2594.693a6.248 6.248 0 0 0-2.337.585 4.367 4.367 0 0 1-.454.209.245.245 0 0 1-.21-.091.248.248 0 0 1-.013-.229 1.108 1.108 0 0 1 .354-.339 6.99 6.99 0 0 1 2.578-.673 1.577 1.577 0 0 1 .8.194.236.236 0 0 1 .1.2c-.012.066-.1.167-.155.169-.224.011-.443-.013-.663-.025z" class="cls-4" transform="translate(-2094.888 2626.219)"/>
                <path id="Path_2194" d="M2093.407-2574.33c-.149.01-.257.025-.365.022s-.216-.021-.3-.031a3.464 3.464 0 0 0-1.225 1.586c-.132.339-.306.466-.438.373-.151-.106-.18-.307-.061-.613a4 4 0 0 1 1.428-1.81.549.549 0 0 1 .553-.095.556.556 0 0 1 .408.568z" class="cls-4" transform="translate(-2080.081 2621.565)"/>
                <path id="Path_2195" d="M2128.3-2586.907a1.139 1.139 0 0 1-1.07-1.329 2.576 2.576 0 0 1 .569-1.2 1.017 1.017 0 0 1 .324-.252.33.33 0 0 1 .3.029.313.313 0 0 1 .033.288c-.055.123-.184.21-.254.328a3.727 3.727 0 0 0-.345.662c-.17.488-.025.767.466.976a1.476 1.476 0 0 1 .227.094.17.17 0 0 1 .076.134.367.367 0 0 1-.116.2.587.587 0 0 1-.21.07z" class="cls-4" transform="translate(-2088.395 2624.951)"/>
                <path id="Path_2196" d="M2179.13-2579.356c.042-.691.071-1.188.563-1.5a1.308 1.308 0 0 1 1.11-.126.162.162 0 0 1 .092.126c0 .074-.025.193-.073.212a3.493 3.493 0 0 1-.469.123c-.493.124-.646.3-.659.809a3.925 3.925 0 0 0 .076.654 2.892 2.892 0 0 1 .078.487.322.322 0 0 1-.166.246.294.294 0 0 1-.27-.1c-.128-.365-.225-.737-.282-.931z" class="cls-4" transform="translate(-2100.3 2622.967)"/>
                <path id="Path_2197" d="M2113.129-2594.8c-.032.089-.038.185-.09.231a1.238 1.238 0 0 1-.344.227 3.127 3.127 0 0 0-1.463 1.055.341.341 0 0 1-.3.056.258.258 0 0 1-.16-.339.863.863 0 0 1 .26-.412 7 7 0 0 1 1.74-.969.229.229 0 0 1 .162 0 1.2 1.2 0 0 1 .195.151z" class="cls-4" transform="translate(-2084.624 2626.158)"/>
                <path id="Path_2198" d="M2115.142-2593.06c.123.021.19.014.229.044.06.048.135.118.14.184a.242.242 0 0 1-.105.2c-.582.177-1.167.345-1.757.5a.483.483 0 0 1-.313-.072.318.318 0 0 1-.109-.2.155.155 0 0 1 .065-.136 9.919 9.919 0 0 1 1.85-.52z" class="cls-4" transform="translate(-2085.189 2625.72)"/>
                <path id="Path_2199" d="M2183.41-2572.364c-.045.029-.1.1-.17.1a.763.763 0 0 1-.8-.65.885.885 0 0 1 .189-.426c.021-.032.207-.012.211 0 .072.372.394.568.583.855.007.027-.007.061-.013.121z" class="cls-4" transform="translate(-2101.058 2621.202)"/>
                <path id="Path_2200" d="M2161.323-2571c-.076-.087-.188-.16-.2-.242a.361.361 0 0 1 .144-.26.477.477 0 0 1 .308-.093.333.333 0 0 1 .246.16.312.312 0 0 1-.1.273 1.618 1.618 0 0 1-.398.162z" class="cls-4" transform="translate(-2096.172 2620.799)"/>
                <path id="Path_2201" d="M2156.31-2576.441c-.04-.035-.127-.076-.144-.137a.254.254 0 0 1 .055-.214.48.48 0 0 1 .585-.128.161.161 0 0 1 .076.122c-.003.205-.253.365-.572.357z" class="cls-4" transform="translate(-2095.034 2622.032)"/>
                <path id="Path_2202" d="M2157.463-2570.389a2.616 2.616 0 0 1-.271-.406c-.011-.025.132-.166.212-.173a.272.272 0 0 1 .287.3c-.024.087-.119.151-.228.279z" class="cls-4" transform="translate(-2095.271 2620.655)"/>
                <path id="Path_2203" d="M2186.366-2588.772a.4.4 0 0 1-.143-.062c-.034-.036-.073-.12-.055-.143a8.03 8.03 0 0 0 .567-.872.16.16 0 0 1 .143-.056.353.353 0 0 1 .182.145.265.265 0 0 1 0 .232 3.9 3.9 0 0 0-.543.7c-.017.028-.1.037-.151.056z" class="cls-4" transform="translate(-2101.913 2624.997)"/>
                <path id="Path_2204" d="M2194.208-2586.968a.62.62 0 0 1-.07-.141.325.325 0 0 1 .01-.155.135.135 0 0 1 .042-.069c.162-.157.34-.292.577-.18a.249.249 0 0 1 .11.2c-.02.218-.277.367-.669.345z" class="cls-4" transform="translate(-2103.74 2624.458)"/>
                <path id="Path_2205" d="M2197.691-2581.152c-.053.51-.115.623-.336.651a.3.3 0 0 1-.326-.188.231.231 0 0 1 .124-.336 3.233 3.233 0 0 1 .538-.127z" class="cls-4" transform="translate(-2104.397 2622.99)"/>
                <path id="Path_2206" d="M2197.252-2586.955c-.074.081-.144.212-.249.254a.874.874 0 0 1-.374-.015c-.017 0-.048-.049-.042-.06.057-.114.1-.263.189-.325a.676.676 0 0 1 .368-.031c.029.003.056.084.108.177z" class="cls-4" transform="translate(-2104.303 2624.363)"/>
                <path id="Path_2207" d="M2193.705-2580.6a.252.252 0 0 1-.3.213.254.254 0 0 1-.251-.271.326.326 0 0 1 .253-.37c.159-.012.304.198.298.428z" class="cls-4" transform="translate(-2103.516 2622.962)"/>
                <path id="Path_2208" d="M2189.653-2590.985c-.063-.071-.175-.14-.179-.216a.33.33 0 0 1 .148-.248.4.4 0 0 1 .306-.035.387.387 0 0 1 .19.221c.016.042-.061.149-.121.183a1.582 1.582 0 0 1-.344.095z" class="cls-4" transform="translate(-2102.672 2625.363)"/>
                <path id="Path_2209" d="M2187.8-2591.678c-.007.252-.133.411-.281.37a.32.32 0 0 1-.189-.21.261.261 0 0 1 .28-.307c.074.009.142.11.19.147z" class="cls-4" transform="translate(-2102.178 2625.438)"/>
                <path id="Path_2210" d="M2187.962-2593.276c-.053-.045-.159-.1-.2-.18a.272.272 0 0 1 .247-.347.3.3 0 0 1 .2.2c.03.139-.021.277-.247.327z" class="cls-4" transform="translate(-2102.276 2625.891)"/>
                <path id="Path_2211" d="M2195.278-2580.733c-.1-.14-.187-.211-.2-.295a.225.225 0 0 1 .205-.283c.137-.021.3.115.257.229a1.9 1.9 0 0 1-.262.349z" class="cls-4" transform="translate(-2103.955 2623.027)"/>
                <path id="Path_2212" d="M2197.021-2582.623c-.087-.106-.168-.167-.19-.246-.011-.038.079-.139.139-.156.118-.033.215.026.2.163-.009.062-.07.122-.149.239z" class="cls-4" transform="translate(-2104.358 2623.421)"/>
                <path id="Path_2213" d="M2105.91-2602.912l-.54.585c-.245.034-.308-.106-.3-.3a.983.983 0 0 1 .075-.323c.155-.361.425-.365.765.038z" class="cls-4" transform="translate(-2083.32 2628.049)"/>
                <path id="Path_2214" d="M2097.08-2598.094c0 .155-.139.248-.354.237s-.366-.139-.3-.277a.5.5 0 0 1 .263-.264.349.349 0 0 1 .391.304z" class="cls-4" transform="translate(-2081.334 2626.946)"/>
                <path id="Path_2215" d="M2109.09-2604.583a1.616 1.616 0 0 1-.347.208.262.262 0 0 1-.324-.179.177.177 0 0 1 .114-.258.946.946 0 0 1 .4.013c.053.011.086.113.157.216z" class="cls-4" transform="translate(-2084.083 2628.419)"/>
                <path id="Path_2216" d="M2117.173-2617.787l.187.029c.219.037.382.177.312.283a.582.582 0 0 1-.3.23.691.691 0 0 1-.4-.021.32.32 0 0 1-.181-.228c0-.081.093-.18.17-.241a.494.494 0 0 1 .212-.052z" class="cls-4" transform="translate(-2086.008 2631.39)"/>
                <path id="Path_2217" d="M2115.712-2625.469c-.132.079-.214.168-.3.173a.371.371 0 0 1-.372-.281.332.332 0 0 1 .056-.292.3.3 0 0 1 .292-.015 2.22 2.22 0 0 1 .324.415z" class="cls-4" transform="translate(-2085.603 2633.253)"/>
                <path id="Path_2218" d="M2118.619-2621.154c-.054.1-.067.169-.106.192a.436.436 0 0 1-.577-.145.186.186 0 0 1-.01-.152.257.257 0 0 1 .341-.15 1.74 1.74 0 0 1 .352.255z" class="cls-4" transform="translate(-2086.265 2632.225)"/>
                <path id="Path_2219" d="M2083.707-2575.249l.678-.148a1.6 1.6 0 0 1-.025.368c-.082.237-.214.458-.274.7a1.146 1.146 0 0 0 .351 1.21c.138.123.239.254.1.425s-.305.1-.457.028a.791.791 0 0 1-.482-.64 2.714 2.714 0 0 1 .108-1.723.73.73 0 0 0 .033-.247z" class="cls-4" transform="translate(-2078.376 2621.67)"/>
            </g>
        </g>
    </g>
</svg>
