<svg xmlns="http://www.w3.org/2000/svg" width="280" height="280" viewBox="0 0 280 280">
    <defs>
        <style>
            .cls-1{fill:#ef590e}.cls-3{fill:#ede1c5}
        </style>
    </defs>
    <g id="do_something_drink" transform="translate(-.463)">
        <path id="Rectangle_1503" d="M0 0H280V280H0z" class="cls-1" transform="translate(.463)"/>
        <g id="do_something_drink-2" transform="translate(36.463 56)">
            <g id="Group_284">
                <path id="Path_1727" fill="#c2d028" d="M2847.267-2669.818c31.654 0 59.864 23.126 59.864 60.684 0 37.394-28.21 60.519-59.864 60.519-31.489 0-59.7-23.125-59.7-60.519.001-37.558 28.211-60.684 59.7-60.684z" transform="translate(-2699.029 2669.818)"/>
                <g id="Group_283" transform="translate(0 2.46)">
                    <path id="Path_1728" d="M2672.636-2550.342v-116.283h41.658c33.13 0 57.4 21.485 57.4 58.224s-24.438 58.059-57.567 58.059z" class="cls-3" transform="translate(-2672.636 2666.625)"/>
                </g>
            </g>
            <g id="Group_286" transform="translate(.794 128.662)">
                <g id="Group_285">
                    <path id="Path_1729" d="M2693.83-2469.392c-.851 3.033-3.352 5.746-9.736 5.746-2.66 0-5.48-.372-7.714-2.128a6.358 6.358 0 0 1-1.968-2.554 8.269 8.269 0 0 1-.745-3.884v-5.48h6.863v4.363c0 1.384-.107 2.979 1.223 3.831a3.832 3.832 0 0 0 2.129.532 3.377 3.377 0 0 0 2.393-.691c1.011-.8 1.011-2.448 1.011-5a6.161 6.161 0 0 0-.745-3.457 6.229 6.229 0 0 0-1.6-1.49l-6.544-4.416a8.715 8.715 0 0 1-3.138-3.086c-.8-1.33-1.331-2.766-1.331-5.958a12.631 12.631 0 0 1 .9-5.161c2.128-4.576 8.565-4.576 9.311-4.576 1.117 0 7.129 0 9.1 4.948a6.406 6.406 0 0 1 .585 3.138v3.725h-6.916v-3.831c0-1.117-.425-2.714-3.086-2.714-1.6 0-3.085.585-3.085 3.724a7.026 7.026 0 0 0 .745 3.617 6.183 6.183 0 0 0 1.437 1.224l6.7 4.628a14.058 14.058 0 0 1 3.086 2.927c1.649 2.181 1.489 3.831 1.489 6.491a21.214 21.214 0 0 1-.364 5.532z" class="cls-3" transform="translate(-2673.667 2502.803)"/>
                    <path id="Path_1730" d="M2722.188-2466.147c-2.235 2.075-5.267 2.5-8.14 2.5-2.766 0-5.586-.372-7.821-2.181a6.083 6.083 0 0 1-1.862-2.341 10.171 10.171 0 0 1-.8-4.31v-21.068c0-.8-.16-4.576 2.341-6.81 1.384-1.224 3.991-2.448 8.194-2.448 5.427 0 8.3 2.235 9.416 4.417a10.387 10.387 0 0 1 .851 5v20.908c.003 2.397-.367 4.58-2.179 6.333zm-4.789-26.76a6.6 6.6 0 0 0-.425-3.033 2.931 2.931 0 0 0-2.873-1.649 3.821 3.821 0 0 0-2.235.692c-1.543 1.064-1.33 2.713-1.33 4.256v18.993a5.944 5.944 0 0 0 .638 3.458 3.573 3.573 0 0 0 2.819 1.117 4.054 4.054 0 0 0 2.182-.638c1.277-.9 1.223-2.394 1.223-3.777z" class="cls-3" transform="translate(-2680.533 2502.803)"/>
                    <path id="Path_1731" d="M2759.287-2464.207l.639-32.559-6.065 32.559h-6.438l-6.225-32.559.532 32.559h-6.811v-37.561h11.281l4.416 26.283 4.469-26.283h11.115v37.561z" class="cls-3" transform="translate(-2687.732 2502.565)"/>
                    <path id="Path_1732" d="M2780.7-2464.207v-37.561h18.2v5.693h-11.28v8.831h10.64v5.693h-10.64V-2470h11.812v5.8z" class="cls-3" transform="translate(-2698.247 2502.565)"/>
                    <path id="Path_1733" d="M2819.657-2496.34v32.134h-6.969v-32.134h-6.917v-5.427h20.855v5.427z" class="cls-3" transform="translate(-2704.003 2502.565)"/>
                    <path id="Path_1734" d="M2847.816-2464.207v-17.184h-6.332v17.184h-6.916v-37.561h6.916v14.737h6.332v-14.737h6.917v37.561z" class="cls-3" transform="translate(-2710.615 2502.565)"/>
                    <path id="Path_1735" d="M2865.919-2464.207v-37.561h6.863v37.561z" class="cls-3" transform="translate(-2717.815 2502.565)"/>
                    <path id="Path_1736" d="M2892.562-2464.207l-6.651-28.144.585 28.144h-6.491v-37.561h8.885l6.757 27.559-.692-27.559h6.331v37.561z" class="cls-3" transform="translate(-2721.05 2502.565)"/>
                    <path id="Path_1737" d="M2926.771-2464.444v-2.234a11.4 11.4 0 0 1-1.49 1.436 8.576 8.576 0 0 1-5.214 1.6c-4.683 0-6.81-2.5-7.555-4.363a8.755 8.755 0 0 1-.532-3.3v-21.387a14.4 14.4 0 0 1 .692-5c1.543-4.15 6.172-5.107 10-5.107 3.033 0 7.129.639 8.992 3.459a7.084 7.084 0 0 1 1.01 3.99v5.48h-6.916v-3.618c0-1.277.106-2.554-1.17-3.351a3.77 3.77 0 0 0-2.075-.533 3.783 3.783 0 0 0-2.182.585c-1.064.745-1.33 1.915-1.33 4.256v19.845a5.389 5.389 0 0 0 .266 1.968c.319.8 1.011 1.7 2.98 1.7a3.345 3.345 0 0 0 2.713-.957c.851-.9.8-2.181.8-3.352v-5.852h-4.26v-5.639h11.172v20.376z" class="cls-3" transform="translate(-2728.392 2502.803)"/>
                </g>
            </g>
            <g id="drink" transform="translate(125.33 12.324)">
                <path id="Path_1738" d="M2852.75-2566.7a12.871 12.871 0 0 0 .837-3.425c.149-1.508.253-3.021.339-4.535q.208-3.639.363-7.281c.055-1.339.037-2.68.069-4.021.022-.949.077-1.9.109-2.85.016-.493.015-.988.019-1.481.017-1.9.083-3.8.035-5.7a48.367 48.367 0 0 0-.475-6.737 2.727 2.727 0 0 0-.4-1.074 2.722 2.722 0 0 1-.365-.752 1.013 1.013 0 0 0-.629-.662 2.325 2.325 0 0 0-.4-.126 20.845 20.845 0 0 1-6.04-2.7 21.572 21.572 0 0 1-5.082-4.562 20.9 20.9 0 0 1-2.457-3.682 18.313 18.313 0 0 1-1.825-4.486c-.195-.926-.491-1.831-.745-2.745a29.2 29.2 0 0 1-.645-4.6 33.634 33.634 0 0 1 .069-6.542 44.539 44.539 0 0 1 1.263-7.288 61 61 0 0 1 1.942-6.027c.562-1.525 1.229-3 1.88-4.478a1.285 1.285 0 0 1 1.361-.914 21.075 21.075 0 0 0 2.108-.121c1.124-.078 2.246-.168 3.371-.236.633-.038 1.269-.052 1.9-.059 1.8-.019 3.6-.04 5.393-.038q3.33.005 6.661.054c.665.011 1.327.118 1.991.167a8.588 8.588 0 0 0 .951.014 31.179 31.179 0 0 1 4.859.185c.7.081 1.4.155 2.1.232a1.434 1.434 0 0 0 1.011-.132.51.51 0 0 1 .774.3c.313.747.619 1.5.87 2.268q.808 2.46 1.552 4.94a60.29 60.29 0 0 1 1.487 6.153 58.643 58.643 0 0 1 .894 7.445 31 31 0 0 1 .072 3.579 39.711 39.711 0 0 1-.574 5.35 28.252 28.252 0 0 1-1.925 6.236 23.758 23.758 0 0 1-3.237 5.168 10.561 10.561 0 0 1-1.109 1.133 20.947 20.947 0 0 1-5.895 3.851 18.074 18.074 0 0 1-3.71 1.186 3.048 3.048 0 0 0-.614.157 1.516 1.516 0 0 0-.93.937 17.717 17.717 0 0 0-.879 4.334c-.2 2.39-.127 4.788-.284 7.179-.11 1.687-.066 3.384-.121 5.075-.077 2.389-.211 4.777-.265 7.166-.032 1.4.033 2.8.076 4.2.057 1.865.1 3.732.218 5.594.063 1.052.254 2.094.394 3.141a2 2 0 0 0 .118.51 1.243 1.243 0 0 0 1.115.813c2.344.276 4.682.605 7.02.927a7.292 7.292 0 0 1 .921.235 14.694 14.694 0 0 0 1.528.413 5.8 5.8 0 0 1 2.3 1.025 1.937 1.937 0 0 1 .327.267 1.059 1.059 0 0 1-.1 1.73 7.434 7.434 0 0 1-2.113 1.166 20.526 20.526 0 0 1-4.447.9c-2.024.274-4.054.513-6.088.682a29.745 29.745 0 0 1-3.047-.043c-.07 0-.139-.022-.21-.022-1.231.006-2.462 0-3.693.025a52.312 52.312 0 0 1-8.536-.518 2.57 2.57 0 0 1-.5-.141c-.661-.242-1.324-.481-1.978-.745a4.273 4.273 0 0 1-.838-.441 1.6 1.6 0 0 1-.044-2.725 7.667 7.667 0 0 1 1.288-.717 19.69 19.69 0 0 1 3.125-.948 38.1 38.1 0 0 1 6.152-.95c.444-.048.888-.151 1.338-.233zm19.958-84.671a23.294 23.294 0 0 1-5.016.454c-1.824.133-3.663.056-5.495.09-.809.016-1.618.116-2.426.11-1.652-.011-3.3-.052-4.954-.111-1.475-.054-2.95-.14-4.424-.228-.95-.057-1.9-.142-2.847-.218s-1.9-.167-2.845-.236a9.817 9.817 0 0 1-2.869-.61 1.166 1.166 0 0 0-.349 0 9.672 9.672 0 0 0-.494.915c-.431 1.038-.852 2.079-1.251 3.129a53.182 53.182 0 0 0-2.182 6.828c-.39 1.683-.762 3.367-.994 5.079-.119.872-.223 1.75-.262 2.629-.055 1.2-.044 2.4-.055 3.593a24.319 24.319 0 0 0 .5 4.892 8.564 8.564 0 0 0 3.377-.36c0-.226.016-.47 0-.712q-.124-1.582-.265-3.163a27.08 27.08 0 0 1 .021-6.116c.125-.905.153-1.823.23-2.735.073-.877.089-1.766.243-2.628a50.888 50.888 0 0 1 1.076-5.171c.244-.845.482-1.692.7-2.544a1.072 1.072 0 0 1 1.078-.937c.149-.289.258-.55.411-.783a.681.681 0 0 1 .829-.3 1.425 1.425 0 0 1 .3.089 2.687 2.687 0 0 0 1.642.272 3.672 3.672 0 0 1 .529-.01 2.714 2.714 0 0 1 1.789 1.028 1.68 1.68 0 0 1 .3 1.4 1.875 1.875 0 0 1-.907 1.361 1.1 1.1 0 0 1-1.295-.015c-.045-.027-.133.014-.239.028a18.3 18.3 0 0 0-1.311 3.643 31.852 31.852 0 0 0-1.09 6.985 52.127 52.127 0 0 0 .407 9.177 4.225 4.225 0 0 0 .195.666c1.5 0 2.949.022 4.391-.006 1.619-.032 3.236-.13 4.855-.163 1.232-.026 2.464.006 3.7.009 2.786.008 5.571.009 8.357.024.7 0 1.409.031 2.111.077.915.061 1.825.168 2.739.222.372.022.776.135 1.121-.15.029-.1.066-.2.086-.3a22.137 22.137 0 0 0 .245-6.09 10.748 10.748 0 0 1 0-1.476c0-.091.177-.2.294-.247.073-.027.2.039.278.1a.761.761 0 0 1 .183.252 2.033 2.033 0 0 1 .163.917 25.521 25.521 0 0 1-.3 6.622c-.061.267.1.461.387.542a3.81 3.81 0 0 0 .518.094c.9.114 1.8.224 2.74.341a1.549 1.549 0 0 0 .27-1.061c.042-1.3.2-2.591.176-3.9a44.009 44.009 0 0 0-.482-6.409 45.4 45.4 0 0 0-.9-5.2c-.24-.845-.385-1.716-.613-2.565s-.519-1.684-.761-2.533a40.055 40.055 0 0 0-1.615-4.591zm-35.538 28.234a2.533 2.533 0 0 0 0 .415 10.333 10.333 0 0 0 .244 1.027 24.326 24.326 0 0 0 2.72 6.164 28.615 28.615 0 0 0 2.18 2.978 18.773 18.773 0 0 0 4.642 3.957 20.21 20.21 0 0 0 5.6 2.426c.647.151 1.237.28 1.433 1.031.031.121.18.212.275.317a2.449 2.449 0 0 1 .592 1.336c.167 1.184.343 2.37.429 3.561.091 1.265.124 2.537.11 3.8-.038 3.416-.118 6.832-.174 10.247-.007.422.058.846.038 1.267-.086 1.864-.2 3.727-.289 5.591-.086 1.8-.136 3.592-.242 5.385a32.925 32.925 0 0 1-.709 5.968 5.69 5.69 0 0 1-1.072 2.379c-.468.563-.589.57-.923-.078a3.137 3.137 0 0 0-.177-.267c-.221.015-.43.019-.638.043a37.972 37.972 0 0 0-5.421.864 27.944 27.944 0 0 0-3.042.861 6.732 6.732 0 0 0-1.389.74.714.714 0 0 0 .01 1.291 3.678 3.678 0 0 0 .848.418 14.045 14.045 0 0 0 3.552.949c1.509.119 3.01.324 4.53.3 1.055-.018 2.109-.008 3.166-.054 1.333-.057 2.675.1 4.012.093a38.72 38.72 0 0 0 4.224-.152c2.306-.259 4.6-.63 6.9-.985a7.6 7.6 0 0 0 2.992-1.276c.359-.237.365-.544.018-.747a5.351 5.351 0 0 0-1.833-.791 7.848 7.848 0 0 1-1.337-.315 17.833 17.833 0 0 0-3.924-.784c-.7-.079-1.394-.21-2.1-.27a13.542 13.542 0 0 0-2.261-.22 3.2 3.2 0 0 0 .194.623c.12.211.307.383.448.584a.374.374 0 0 1-.3.544.69.69 0 0 1-.685-.4 6.621 6.621 0 0 0-1.254-1.721 3.615 3.615 0 0 0-.072-.8 32.6 32.6 0 0 1-.646-3.848 1.2 1.2 0 0 1-.032-.207c-.019-.771-.028-1.543-.055-2.314-.065-1.83-.181-3.658-.2-5.488-.015-1.62.079-3.241.119-4.862.02-.811.023-1.622.042-2.433.032-1.373.071-2.746.109-4.119.038-1.407.067-2.815.121-4.223.064-1.688.156-3.374.223-5.062a15.174 15.174 0 0 1 .626-4.269c.154-.459.235-.941.353-1.429-.123-.052-.217-.13-.305-.123-.665.049-1.332.1-1.994.182a6.416 6.416 0 0 1-1.9-.042 1.972 1.972 0 0 1-.308-.073.435.435 0 0 1-.292-.495.433.433 0 0 1 .459-.351 1.615 1.615 0 0 1 .314.034 16.843 16.843 0 0 0 4-.175 15.531 15.531 0 0 0 2.285-.426 15.526 15.526 0 0 0 2.731-.8 25.18 25.18 0 0 0 4.26-2.293 18.17 18.17 0 0 0 3.127-2.82 20.756 20.756 0 0 0 4.1-7.425c.26-.8.482-1.622.68-2.443a14.3 14.3 0 0 0 .192-1.476c-1.367.019-2.653.034-3.972.173-.226.562-.471 1.106-.666 1.668a28.6 28.6 0 0 1-3.123 6.1 27.484 27.484 0 0 1-4.627 5.463 2.163 2.163 0 0 1-.724.387.411.411 0 0 1-.344-.166.473.473 0 0 1-.023-.387c.049-.117.186-.2.288-.292a30.982 30.982 0 0 0 2.568-2.651 36.714 36.714 0 0 0 4.249-6.534 22.672 22.672 0 0 0 1.156-2.831 3.579 3.579 0 0 0 .12-.707h-2.048c-.7-.005-1.41-.044-2.114-.023-1.9.056-3.795.142-5.692.2-.879.027-1.76.012-2.638.034q-3.907.095-7.812.2c-.386.01-.772.039-1.158.053-1.409.051-2.818.1-4.226.154a4.183 4.183 0 0 0-.646.137c.229 1.059.414 2.062.67 3.045a17.518 17.518 0 0 0 .807 2.507c.582 1.357 1.241 2.681 1.894 4.006a1.527 1.527 0 0 1 .111 1.025.617.617 0 0 1-.665.552 3.209 3.209 0 0 1-2.126-.792 11.5 11.5 0 0 1-3.225-4.636c-.567-1.4-.968-2.862-1.443-4.3-.153-.462-.312-.923-.478-1.416zm7.316-26.444a2.318 2.318 0 0 0-1.6 1.661 51.646 51.646 0 0 0-1.5 6.366c-.076.45-.2.9-.239 1.35-.155 1.716-.282 3.434-.425 5.151a22.51 22.51 0 0 0-.159 3.582c.051.666.114 1.331.165 2 .083 1.089.156 2.177.244 3.265a.825.825 0 0 0 .416.785 20.678 20.678 0 0 0 2.3-.36c0-.238.017-.447 0-.651-.117-1.225-.3-2.447-.351-3.674-.074-1.689-.084-3.383-.064-5.073.012-1.02.122-2.039.21-3.057a27.4 27.4 0 0 1 .927-4.759 29.53 29.53 0 0 1 1.479-4.063c.137-.317.259-.666.732-.79l.909.729c.469-.384.523-.42.548-.64a1.455 1.455 0 0 0-.024-.619 1.511 1.511 0 0 0-1.432-.876 2.948 2.948 0 0 1-2.135-.327zm.3-2.764c1.552.124 3.021.26 4.493.354 1.721.111 3.444.19 5.167.276 2.851.142 5.7.066 8.553-.012 1.618-.044 3.237-.044 4.856-.082 1.021-.024 2.043-.072 3.063-.133a1.654 1.654 0 0 0 .508-.216 11.412 11.412 0 0 0-1.486-.262 22.614 22.614 0 0 0-3.67-.31c-1.23-.063-2.464-.052-3.7-.092-2.781-.094-5.561-.129-8.344-.123q-4.38.01-8.751.214c-.238.011-.502-.026-.689.386zm.215 28.4a3.437 3.437 0 0 0 .567.089q2.532-.064 5.062-.147c2.808-.09 5.615-.189 8.423-.272 1.229-.036 2.461-.032 3.691-.067 1.089-.031 2.177-.111 3.266-.137 1.687-.041 3.375-.053 5.062-.084a3.832 3.832 0 0 0 .565-.128c-4.894-.779-24.4-.578-26.707-.048zm2.683 11.3a11.933 11.933 0 0 0-.948-2.244 17.544 17.544 0 0 1-1.4-3.067 10.842 10.842 0 0 1-.592-2.24 11.5 11.5 0 0 0-.656-2.75c-.436 0-.82-.009-1.2 0a2.28 2.28 0 0 0-1.229.211 3.2 3.2 0 0 0 .075.447c.393 1.2.8 2.4 1.188 3.607a14.093 14.093 0 0 0 2.473 4.63 5.612 5.612 0 0 0 1.727 1.359c.1.06.261.024.562.043zm-3.8-12.059a9.558 9.558 0 0 0-2.268.183c-.115.021-.237.237-.272.383a.282.282 0 0 0 .3.339 10.312 10.312 0 0 0 2.3-.17zm-3.536.756c-.264-.54-.542-.539-1.835-.043a2.84 2.84 0 0 0 1.838.04z" class="cls-1" transform="translate(-2835.324 2653.82)"/>
                <path id="Path_1739" d="M2861.289-2533.728c-1.959.016-3.89.059-5.821.037-1.407-.015-2.816-.066-4.217-.192a35.715 35.715 0 0 1-5.218-.734c-.306-.073-.636-.045-.939-.126a1.115 1.115 0 0 1-.5-.34.419.419 0 0 1-.045-.381.481.481 0 0 1 .331-.185 1.36 1.36 0 0 1 .417.051c1.209.2 2.415.432 3.629.6 1.042.141 2.092.24 3.142.3q2.053.111 4.113.12c2.039.01 4.073 0 6.114-.152 2.463-.179 4.883-.638 7.327-.924.8-.094 1.59-.283 2.385-.423a6.178 6.178 0 0 1 .733-.1.46.46 0 0 1 .5.308.431.431 0 0 1-.289.5 1.746 1.746 0 0 1-.4.125c-2.538.379-5.074.767-7.616 1.121-1.217.163-2.445.265-3.646.395z" class="cls-1" transform="translate(-2837.438 2626.807)"/>
                <path id="Path_1740" d="M2863.435-2588.191c.251.354.3.656-.009.9-.324.259-.676.483-.959.684-.341-.089-.47-.251-.409-.49a.46.46 0 0 0-.264-.592.665.665 0 0 1-.193-1.061c-.155-.247-.5-.408-.32-.736s.529-.262.847-.193c.514.109 1.032.2 1.548.306a2.432 2.432 0 0 1 .4.116.374.374 0 0 1 .11.543c-.21.175-.449.314-.751.523z" class="cls-1" transform="translate(-2841.273 2639.105)"/>
            </g>
        </g>
    </g>
</svg>
