<svg xmlns="http://www.w3.org/2000/svg" width="280" height="280" viewBox="0 0 280 280">
    <defs>
        <style>
            .cls-1{fill:#ff558b}.cls-3{fill:#ede1c5}
        </style>
    </defs>
    <g id="do_something_shop" transform="translate(.463 -.074)">
        <path id="Rectangle_1502" d="M0 0H280V280H0z" class="cls-1" transform="translate(-.463 .074)"/>
        <g id="do_something_shop-2" transform="translate(35.537 56.074)">
            <g id="Group_278">
                <path id="Path_1715" fill="#efc20e" d="M2485.267-2669.818c31.654 0 59.863 23.126 59.863 60.684 0 37.394-28.21 60.519-59.863 60.519-31.49 0-59.7-23.125-59.7-60.519.001-37.558 28.211-60.684 59.7-60.684z" transform="translate(-2337.029 2669.818)"/>
                <g id="Group_277" transform="translate(0 2.46)">
                    <path id="Path_1716" d="M2310.636-2550.342v-116.283h41.658c33.131 0 57.4 21.485 57.4 58.224s-24.438 58.059-57.567 58.059z" class="cls-3" transform="translate(-2310.636 2666.625)"/>
                </g>
            </g>
            <g id="Group_280" transform="translate(.794 128.662)">
                <g id="Group_279">
                    <path id="Path_1717" d="M2331.831-2469.392c-.851 3.033-3.352 5.746-9.736 5.746-2.66 0-5.48-.372-7.714-2.128a6.358 6.358 0 0 1-1.968-2.554 8.269 8.269 0 0 1-.745-3.884v-5.48h6.863v4.363c0 1.384-.107 2.979 1.223 3.831a3.831 3.831 0 0 0 2.128.532 3.377 3.377 0 0 0 2.394-.691c1.011-.8 1.011-2.448 1.011-5a6.16 6.16 0 0 0-.745-3.457 6.234 6.234 0 0 0-1.6-1.49l-6.545-4.416a8.716 8.716 0 0 1-3.138-3.086c-.8-1.33-1.33-2.766-1.33-5.958a12.625 12.625 0 0 1 .9-5.161c2.128-4.576 8.566-4.576 9.311-4.576 1.117 0 7.129 0 9.1 4.948a6.408 6.408 0 0 1 .585 3.138v3.725h-6.916v-3.831c0-1.117-.425-2.714-3.086-2.714-1.6 0-3.085.585-3.085 3.724a7.025 7.025 0 0 0 .745 3.617 6.188 6.188 0 0 0 1.437 1.224l6.7 4.628a14.064 14.064 0 0 1 3.086 2.927c1.649 2.181 1.489 3.831 1.489 6.491a21.227 21.227 0 0 1-.364 5.532z" class="cls-3" transform="translate(-2311.667 2502.803)"/>
                    <path id="Path_1718" d="M2360.189-2466.147c-2.235 2.075-5.267 2.5-8.14 2.5-2.766 0-5.586-.372-7.821-2.181a6.083 6.083 0 0 1-1.862-2.341 10.171 10.171 0 0 1-.8-4.31v-21.068c0-.8-.16-4.576 2.341-6.81 1.384-1.224 3.991-2.448 8.194-2.448 5.427 0 8.3 2.235 9.416 4.417a10.387 10.387 0 0 1 .851 5v20.908c.002 2.397-.368 4.58-2.179 6.333zm-4.789-26.76a6.6 6.6 0 0 0-.425-3.033 2.932 2.932 0 0 0-2.873-1.649 3.821 3.821 0 0 0-2.235.692c-1.543 1.064-1.33 2.713-1.33 4.256v18.993a5.944 5.944 0 0 0 .638 3.458 3.573 3.573 0 0 0 2.819 1.117 4.053 4.053 0 0 0 2.182-.638c1.277-.9 1.223-2.394 1.223-3.777z" class="cls-3" transform="translate(-2318.533 2502.803)"/>
                    <path id="Path_1719" d="M2397.287-2464.207l.638-32.559-6.065 32.559h-6.438l-6.224-32.559.532 32.559h-6.81v-37.561h11.28l4.416 26.283 4.469-26.283h11.115v37.561z" class="cls-3" transform="translate(-2325.733 2502.565)"/>
                    <path id="Path_1720" d="M2418.7-2464.207v-37.561h18.2v5.693h-11.28v8.831h10.64v5.693h-10.64V-2470h11.811v5.8z" class="cls-3" transform="translate(-2336.247 2502.565)"/>
                    <path id="Path_1721" d="M2457.657-2496.34v32.134h-6.969v-32.134h-6.917v-5.427h20.855v5.427z" class="cls-3" transform="translate(-2342.003 2502.565)"/>
                    <path id="Path_1722" d="M2485.816-2464.207v-17.184h-6.332v17.184h-6.916v-37.561h6.916v14.737h6.332v-14.737h6.917v37.561z" class="cls-3" transform="translate(-2348.616 2502.565)"/>
                    <path id="Path_1723" d="M2503.919-2464.207v-37.561h6.863v37.561z" class="cls-3" transform="translate(-2355.815 2502.565)"/>
                    <path id="Path_1724" d="M2530.562-2464.207l-6.65-28.144.585 28.144h-6.491v-37.561h8.885l6.757 27.559-.692-27.559h6.331v37.561z" class="cls-3" transform="translate(-2359.05 2502.565)"/>
                    <path id="Path_1725" d="M2564.77-2464.444v-2.234a11.39 11.39 0 0 1-1.489 1.436 8.574 8.574 0 0 1-5.214 1.6c-4.683 0-6.811-2.5-7.555-4.363a8.755 8.755 0 0 1-.532-3.3v-21.387a14.411 14.411 0 0 1 .692-5c1.543-4.15 6.172-5.107 10-5.107 3.033 0 7.13.639 8.992 3.459a7.087 7.087 0 0 1 1.011 3.99v5.48h-6.917v-3.618c0-1.277.106-2.554-1.17-3.351a3.769 3.769 0 0 0-2.075-.533 3.781 3.781 0 0 0-2.181.585c-1.064.745-1.33 1.915-1.33 4.256v19.845a5.378 5.378 0 0 0 .266 1.968c.32.8 1.011 1.7 2.98 1.7a3.345 3.345 0 0 0 2.713-.957c.851-.9.8-2.181.8-3.352v-5.852h-4.261v-5.639h11.173v20.376z" class="cls-3" transform="translate(-2366.392 2502.803)"/>
                </g>
            </g>
            <path id="bag" d="M2526.268-2573.525a8.233 8.233 0 0 1-.09-2.388c.063-1.129.094-3.935.066-6.272s-.065-6.121-.085-8.453-.1-6.774-.17-9.895c-.195-8.3-.3-13.467-.31-15.962-.01-2.691-.219-15.07-.335-19.805a18.72 18.72 0 0 0-.572-4.621l-.49-1.182-2-.157c-1.848-.146-10.779-.374-15.348-.391-5.164-.019-5.22-.028-7.352-1.147-1.861-.971-2.217-1.05-3.22-.71a2.4 2.4 0 0 0-1.554 1.514c-.419 1.11-.506 1.133-4.7 1.187-4.389.058-4.556-.005-4.793-1.816-.179-1.371-2.731-2.449-4.064-1.722a1.712 1.712 0 0 0-.958 1.235c-.032 1.378-1.452 1.574-9.229 1.272-1.731-.067-3.71-.186-4.4-.26a1.913 1.913 0 0 0-2.031.888 20.357 20.357 0 0 1-1.845 2.036c-1.179 1.114-1.293 1.814-1.772 10.907-.25 5.486-.951 18.647-1.3 24.581-.144 2.677-.29 6.039-.33 7.44-.039 1.424-.117 3.678-.177 5.089-.058 1.4-.244 7.18-.389 12.878-.113 5.7-.212 11.54-.248 13.009a17.656 17.656 0 0 0 .074 2.915 15.143 15.143 0 0 0 3.612.478c1.91.127 4.478.389 5.694.582a29.671 29.671 0 0 0 4.2.324c1.1-.012 3.007.078 4.283.207 1.253.125 3.513.263 4.972.3s4.111.2 5.864.356 4.281.3 5.621.311 4.163.138 6.273.277 4.122.254 4.48.259c.74.01 4.187.234 6.055.4 3.571.31 4.782.318 6.289.047 1.646-.3 1.682-.327 3.592-3.283 2.389-3.628 3.761-5.572 4.817-6.863 1.165-1.412 2.091-3.175 1.863-3.561zm-3.853 3.588c-1.308 1.882-2.773 4.063-3.29 4.88-.982 1.567-1.528 2.064-1.709 1.555-.064-.181-.029-2.376.082-4.887s.266-6.664.343-9.236.171-5.287.206-6.031.077-2.417.091-3.718.106-3.83.2-5.605.169-3.981.153-4.881.095-5.427.254-10.033c.417-11.238.639-17.483.836-23.88.093-2.941.228-5.508.3-5.671a10.267 10.267 0 0 1 3.582-2.077 12.635 12.635 0 0 1 .325 3.445c.034 1.823.15 6.878.255 11.2s.217 9.428.257 11.311.122 5.753.186 8.622.09 5.261.057 5.343-.009 2.374.054 5.082.141 6.65.181 8.745c.039 2.116.119 5.54.183 7.691a38.727 38.727 0 0 1-.018 4.308 44.158 44.158 0 0 1-2.528 3.833zm-7.358 8.847a29.755 29.755 0 0 1-3.115-.15c-1.308-.114-4.694-.321-7.523-.46s-7.684-.429-10.763-.646-6.063-.393-6.6-.394-2.556-.119-4.518-.268-3.98-.26-4.529-.252-2.772-.134-4.961-.32-4.282-.311-4.652-.279a72.034 72.034 0 0 1-8.274-.883c-.43-.215-.458-1.543-.2-12.547.168-5.285.441-12.852.6-16.851.17-3.992.344-7.665.371-8.163.175-3.114 1.119-19.322 1.175-20.525.035-.8.149-2.366.248-3.447q.4-4.211.6-8.329l.122-2.39 1.155-.368a5.223 5.223 0 0 1 2.157-.18 13.126 13.126 0 0 0 2.438.128c2.1-.086 2.253.409 1.279 4-.73 2.742-.773 3.4-.34 5.1.6 2.38 1.733 3.99 4.283 6.118 3.191 2.688 4.089 2.937 8.955 2.474 5.306-.5 12.636-.708 13.354-.377.906.419 5.363.529 7.416.185a7.015 7.015 0 0 0 5.213-4.017c1.026-2.621.24-6.678-2.109-10.67-.493-.829-.8-1.615-.676-1.757.17-.2 2.486-.228 10.458-.139 1.249.014 1.3.057 1.49 1.4a5.2 5.2 0 0 1 .03 1.782 6.914 6.914 0 0 0-.176 1.706c-.027 3.892-.071 5.683-.249 9.926-.1 2.576-.268 7.566-.369 11.125s-.247 8.816-.337 11.72c-.086 2.887-.143 5.63-.133 6.068.024 1.016-.1 6.278-.311 13.289-.085 3-.156 7.939-.158 10.979 0 6.2-.2 7.32-1.34 7.413zm4.768-77.832c-2.1 1.5-2.164 1.517-6.007 1.4-2.139-.064-4.824-.1-5.97-.072a4.518 4.518 0 0 1-2.929-.6c-2.885-2.206-3.908-2.323-4.6-.534-.379.985-.53 1.024-3.374.835-1.65-.108-3.944-.194-5.147-.19-3.312.011-9.862-.034-11.553-.078-1.445-.036-1.494-.066-1.854-1.114-.72-2.1.106-2.471 3.063-1.382a11.954 11.954 0 0 0 4.57.517c1.57-.073 3.6-.1 4.572-.056s2.234.037 2.834-.009a4.641 4.641 0 0 1 1.946.3c.612.271 1.283.121 2.312-.514 1.162-.715 2.373-.917 6.057-1 2.524-.059 6.11-.048 7.927.022a71.887 71.887 0 0 0 8.892.086c.506-.16 1.642.329 1.5.646a18.086 18.086 0 0 1-2.242 1.751zm-14.26 16.49c-1.671 1.146-5.32 1.5-9.114.88-2.519-.41-6.375-.325-16.236.356a5.024 5.024 0 0 1-3.827-.851c-5.451-3.179-6.4-6.784-3.742-14.784a22.919 22.919 0 0 1 1.842-4.446c.575-.424 2.465.457 2.264 1.056a6.52 6.52 0 0 1-1.123 1.494c-1.448 1.55-2.224 6.743-1.449 9.589a13.371 13.371 0 0 0 4.57 5.27c1.592.717 7.966.924 10.184.331a18.181 18.181 0 0 1 6.341.066c8.085 1.2 12.161-2.378 9.66-8.492a13.6 13.6 0 0 0-2.25-3.539c-1.505-1.582-1.742-2.411-.76-2.694.823-.236 2.207 1.3 4.069 4.536 1.679 2.95 1.806 3.327 2.006 5.883a5.222 5.222 0 0 1-2.434 5.347zm-2.685-3.937c-1.6 1.41-4.235 1.806-8.679 1.3a44.034 44.034 0 0 0-7.459.067 34.764 34.764 0 0 1-5.889.176 6.511 6.511 0 0 1-4.738-3.6c-1.061-2.219-.756-7.584.505-8.531a27.814 27.814 0 0 1 6.417-.284c.113.049 2.078.129 4.379.178l4.951.106c.429.01 2.159.006 3.854-.006 3.467-.028 4.432.273 5.437 1.688 2.141 3.048 3.226 5.959 2.728 7.255a7.382 7.382 0 0 1-1.507 1.656zm-5.763-14.745c-.468.135-.709-.014-.966-.593a2.26 2.26 0 0 1-.266-.973 2.657 2.657 0 0 1 2.118-.741c.612.271-.083 2.077-.885 2.307zm-14.29-.644c-.556.078-1.579-1.176-1.392-1.708a1.314 1.314 0 0 1 1.94-.413c.511.474.105 2.031-.548 2.122zm-11.524 3.092a3.936 3.936 0 0 1-2.116.334 18.146 18.146 0 0 0-2.462-.073c-2.214.136-2.343-.489-.5-2.449.942-.992 1.438-1.175 3.094-1.14 2.053.045 2.857.244 3.125.772.3.583-.364 2.058-1.142 2.556z" class="cls-1" transform="translate(-2344.607 2664.252)"/>
        </g>
    </g>
</svg>
